solid OpenSCAD_Model
  facet normal 0.239315 0.970942 -0
    outer loop
      vertex -0.964293 -7.94167 0
      vertex -2.83684 -7.48013 3
      vertex -0.964293 -7.94167 3
    endloop
  endfacet
  facet normal 0.239315 0.970942 0
    outer loop
      vertex -2.83684 -7.48013 3
      vertex -0.964293 -7.94167 0
      vertex -2.83684 -7.48013 0
    endloop
  endfacet
  facet normal -0.663122 0.748511 0
    outer loop
      vertex 5.98809 -5.30498 0
      vertex 4.54452 -6.58387 3
      vertex 5.98809 -5.30498 3
    endloop
  endfacet
  facet normal -0.663122 0.748511 0
    outer loop
      vertex 4.54452 -6.58387 3
      vertex 5.98809 -5.30498 0
      vertex 4.54452 -6.58387 0
    endloop
  endfacet
  facet normal 0 0 1
    outer loop
      vertex 2.19806 2.86777 3
      vertex -2.75302 3.56366 3
      vertex -2 2 3
    endloop
  endfacet
  facet normal -0 0 1
    outer loop
      vertex -3.09017 9.51056 3
      vertex -2.75302 3.56366 3
      vertex -1.04528 9.94522 3
    endloop
  endfacet
  facet normal -0 0 1
    outer loop
      vertex -5 8.66025 3
      vertex -2.75302 3.56366 3
      vertex -3.09017 9.51056 3
    endloop
  endfacet
  facet normal 0 0 1
    outer loop
      vertex -2.75302 3.56366 3
      vertex -5 8.66025 3
      vertex -4.44504 3.94986 3
    endloop
  endfacet
  facet normal -0 0 1
    outer loop
      vertex -6.69131 7.43145 3
      vertex -4.44504 3.94986 3
      vertex -5 8.66025 3
    endloop
  endfacet
  facet normal -0 0 1
    outer loop
      vertex -9.78148 2.07912 3
      vertex -5.80194 1.13223 3
      vertex -5.80194 2.86777 3
    endloop
  endfacet
  facet normal 0 0 1
    outer loop
      vertex -4.44504 3.94986 3
      vertex -8.09017 5.87785 3
      vertex -5.80194 2.86777 3
    endloop
  endfacet
  facet normal -0 0 1
    outer loop
      vertex -8.09017 5.87785 3
      vertex -4.44504 3.94986 3
      vertex -6.69131 7.43145 3
    endloop
  endfacet
  facet normal -0 0 1
    outer loop
      vertex 6 2 3
      vertex 10 0 3
      vertex 9.78148 2.07912 3
    endloop
  endfacet
  facet normal 0 0 1
    outer loop
      vertex 6 2 3
      vertex 9.78148 2.07912 3
      vertex 9.13545 4.06737 3
    endloop
  endfacet
  facet normal 0 0 1
    outer loop
      vertex 10 0 3
      vertex 6 2 3
      vertex 5.24698 0.436337 3
    endloop
  endfacet
  facet normal 0 0 1
    outer loop
      vertex 5.24698 3.56366 3
      vertex 9.13545 4.06737 3
      vertex 8.09017 5.87785 3
    endloop
  endfacet
  facet normal 0 0 1
    outer loop
      vertex 10 0 3
      vertex 5.24698 0.436337 3
      vertex 9.78148 -2.07912 3
    endloop
  endfacet
  facet normal 0 0 1
    outer loop
      vertex 5.24698 3.56366 3
      vertex 8.09017 5.87785 3
      vertex 6.69131 7.43145 3
    endloop
  endfacet
  facet normal 0 -0 1
    outer loop
      vertex 6.1986 -5 3
      vertex 9.78148 -2.07912 3
      vertex 5.24698 0.436337 3
    endloop
  endfacet
  facet normal 0 0 1
    outer loop
      vertex 9.78148 -2.07912 3
      vertex 6.1986 -5 3
      vertex 9.13545 -4.06737 3
    endloop
  endfacet
  facet normal -0 0 1
    outer loop
      vertex 5.98809 -5.30498 3
      vertex 8.09017 -5.87785 3
      vertex 6.1986 -5 3
    endloop
  endfacet
  facet normal 0 0 1
    outer loop
      vertex 9.13545 4.06737 3
      vertex 5.24698 3.56366 3
      vertex 6 2 3
    endloop
  endfacet
  facet normal 0 0 1
    outer loop
      vertex 3.55496 3.94986 3
      vertex 6.69131 7.43145 3
      vertex 5 8.66025 3
    endloop
  endfacet
  facet normal 0 0 1
    outer loop
      vertex 6.69131 7.43145 3
      vertex 3.55496 3.94986 3
      vertex 5.24698 3.56366 3
    endloop
  endfacet
  facet normal 0 0 1
    outer loop
      vertex 3.09017 9.51056 3
      vertex 3.55496 3.94986 3
      vertex 5 8.66025 3
    endloop
  endfacet
  facet normal 0 0 1
    outer loop
      vertex 1.04528 9.94522 3
      vertex 3.55496 3.94986 3
      vertex 3.09017 9.51056 3
    endloop
  endfacet
  facet normal 0 0 1
    outer loop
      vertex -2.75302 3.56366 3
      vertex 1.04528 9.94522 3
      vertex -1.04528 9.94522 3
    endloop
  endfacet
  facet normal 0 0 1
    outer loop
      vertex 3.55496 3.94986 3
      vertex 1.04528 9.94522 3
      vertex 2.19806 2.86777 3
    endloop
  endfacet
  facet normal 0 0 1
    outer loop
      vertex 8.09017 -5.87785 3
      vertex 5.98809 -5.30498 3
      vertex 6.69131 -7.43145 3
    endloop
  endfacet
  facet normal -0 0 1
    outer loop
      vertex 4.54452 -6.58387 3
      vertex 6.69131 -7.43145 3
      vertex 5.98809 -5.30498 3
    endloop
  endfacet
  facet normal 0 0 1
    outer loop
      vertex 6.69131 -7.43145 3
      vertex 4.54452 -6.58387 3
      vertex 5 -8.66025 3
    endloop
  endfacet
  facet normal -0 0 1
    outer loop
      vertex 2.83684 -7.48013 3
      vertex 5 -8.66025 3
      vertex 4.54452 -6.58387 3
    endloop
  endfacet
  facet normal 0 0 1
    outer loop
      vertex 5 -8.66025 3
      vertex 2.83684 -7.48013 3
      vertex 3.09017 -9.51056 3
    endloop
  endfacet
  facet normal -0 0 1
    outer loop
      vertex 0.964293 -7.94167 3
      vertex 3.09017 -9.51056 3
      vertex 2.83684 -7.48013 3
    endloop
  endfacet
  facet normal 0 0 1
    outer loop
      vertex 3.09017 -9.51056 3
      vertex 0.964293 -7.94167 3
      vertex 1.04528 -9.94522 3
    endloop
  endfacet
  facet normal -0 0 1
    outer loop
      vertex -0.964293 -7.94167 3
      vertex 1.04528 -9.94522 3
      vertex 0.964293 -7.94167 3
    endloop
  endfacet
  facet normal 0 0 1
    outer loop
      vertex -0.964293 -7.94167 3
      vertex -1.04528 -9.94522 3
      vertex 1.04528 -9.94522 3
    endloop
  endfacet
  facet normal 0 0 1
    outer loop
      vertex -3.09017 -9.51056 3
      vertex -0.964293 -7.94167 3
      vertex -2.83684 -7.48013 3
    endloop
  endfacet
  facet normal 0 0 1
    outer loop
      vertex -0.964293 -7.94167 3
      vertex -3.09017 -9.51056 3
      vertex -1.04528 -9.94522 3
    endloop
  endfacet
  facet normal 0 0 1
    outer loop
      vertex -5 -8.66025 3
      vertex -2.83684 -7.48013 3
      vertex -4.54452 -6.58387 3
    endloop
  endfacet
  facet normal 0 0 1
    outer loop
      vertex -2.83684 -7.48013 3
      vertex -5 -8.66025 3
      vertex -3.09017 -9.51056 3
    endloop
  endfacet
  facet normal 0 0 1
    outer loop
      vertex -6.69131 -7.43145 3
      vertex -4.54452 -6.58387 3
      vertex -5.98809 -5.30498 3
    endloop
  endfacet
  facet normal 0 0 1
    outer loop
      vertex -8.09017 -5.87785 3
      vertex -5.98809 -5.30498 3
      vertex -6.1986 -5 3
    endloop
  endfacet
  facet normal 0 0 1
    outer loop
      vertex -4.54452 -6.58387 3
      vertex -6.69131 -7.43145 3
      vertex -5 -8.66025 3
    endloop
  endfacet
  facet normal -0 0 1
    outer loop
      vertex -9.13545 4.06737 3
      vertex -5.80194 2.86777 3
      vertex -8.09017 5.87785 3
    endloop
  endfacet
  facet normal 0 0 1
    outer loop
      vertex -9.78148 2.07912 3
      vertex -5.80194 2.86777 3
      vertex -9.13545 4.06737 3
    endloop
  endfacet
  facet normal 0 0 1
    outer loop
      vertex -5.98809 -5.30498 3
      vertex -8.09017 -5.87785 3
      vertex -6.69131 -7.43145 3
    endloop
  endfacet
  facet normal 0 0 1
    outer loop
      vertex -5.80194 1.13223 3
      vertex -9.78148 2.07912 3
      vertex -10 0 3
    endloop
  endfacet
  facet normal 0 0 1
    outer loop
      vertex -6.1986 -5 3
      vertex -9.13545 -4.06737 3
      vertex -8.09017 -5.87785 3
    endloop
  endfacet
  facet normal 0 0 1
    outer loop
      vertex -5.80194 1.13223 3
      vertex -10 0 3
      vertex -9.78148 -2.07912 3
    endloop
  endfacet
  facet normal 0 0 1
    outer loop
      vertex -6.1986 -5 3
      vertex -9.78148 -2.07912 3
      vertex -9.13545 -4.06737 3
    endloop
  endfacet
  facet normal 0 0 1
    outer loop
      vertex -5.80194 1.13223 3
      vertex -9.78148 -2.07912 3
      vertex -6.1986 -5 3
    endloop
  endfacet
  facet normal 0 0 1
    outer loop
      vertex 9.13545 -4.06737 3
      vertex 6.1986 -5 3
      vertex 8.09017 -5.87785 3
    endloop
  endfacet
  facet normal -0 0 1
    outer loop
      vertex 3.55496 0.0501432 3
      vertex 6.1986 -5 3
      vertex 5.24698 0.436337 3
    endloop
  endfacet
  facet normal -0 0 1
    outer loop
      vertex -2.75302 0.436337 3
      vertex 3.55496 0.0501432 3
      vertex 2.19806 1.13223 3
    endloop
  endfacet
  facet normal 0 0 1
    outer loop
      vertex 1.04528 9.94522 3
      vertex -2.75302 3.56366 3
      vertex 2.19806 2.86777 3
    endloop
  endfacet
  facet normal 0 0 1
    outer loop
      vertex 2.19806 2.86777 3
      vertex -2 2 3
      vertex 2.19806 1.13223 3
    endloop
  endfacet
  facet normal 0 0 1
    outer loop
      vertex -2.75302 0.436337 3
      vertex 2.19806 1.13223 3
      vertex -2 2 3
    endloop
  endfacet
  facet normal 0 0 1
    outer loop
      vertex 3.55496 0.0501432 3
      vertex -2.75302 0.436337 3
      vertex 6.1986 -5 3
    endloop
  endfacet
  facet normal 0 0 1
    outer loop
      vertex -6.1986 -5 3
      vertex -2.75302 0.436337 3
      vertex -4.44504 0.0501432 3
    endloop
  endfacet
  facet normal 0 0 1
    outer loop
      vertex -2.75302 0.436337 3
      vertex -6.1986 -5 3
      vertex 6.1986 -5 3
    endloop
  endfacet
  facet normal 0 0 1
    outer loop
      vertex -6.1986 -5 3
      vertex -4.44504 0.0501432 3
      vertex -5.80194 1.13223 3
    endloop
  endfacet
  facet normal 0.663122 0.748511 -0
    outer loop
      vertex -4.54452 -6.58387 0
      vertex -5.98809 -5.30498 3
      vertex -4.54452 -6.58387 3
    endloop
  endfacet
  facet normal 0.663122 0.748511 0
    outer loop
      vertex -5.98809 -5.30498 3
      vertex -4.54452 -6.58387 0
      vertex -5.98809 -5.30498 0
    endloop
  endfacet
  facet normal -0.239315 0.970942 0
    outer loop
      vertex 2.83684 -7.48013 0
      vertex 0.964293 -7.94167 3
      vertex 2.83684 -7.48013 3
    endloop
  endfacet
  facet normal -0.239315 0.970942 0
    outer loop
      vertex 0.964293 -7.94167 3
      vertex 2.83684 -7.48013 0
      vertex 0.964293 -7.94167 0
    endloop
  endfacet
  facet normal -0.822987 0.56806 0
    outer loop
      vertex 5.98809 -5.30498 0
      vertex 6.1986 -5 3
      vertex 6.1986 -5 0
    endloop
  endfacet
  facet normal -0.822987 0.56806 0
    outer loop
      vertex 6.1986 -5 3
      vertex 5.98809 -5.30498 0
      vertex 5.98809 -5.30498 3
    endloop
  endfacet
  facet normal 0 0 -1
    outer loop
      vertex 10 0 0
      vertex 5.24698 0.436337 0
      vertex 6 2 0
    endloop
  endfacet
  facet normal 0 0 -1
    outer loop
      vertex 6.1986 -5 0
      vertex 3.55496 0.0501432 0
      vertex 5.24698 0.436337 0
    endloop
  endfacet
  facet normal 0 0 -1
    outer loop
      vertex -2.75302 0.436337 0
      vertex 3.55496 0.0501432 0
      vertex 6.1986 -5 0
    endloop
  endfacet
  facet normal 0 0 -1
    outer loop
      vertex -2 2 0
      vertex 2.19806 2.86777 0
      vertex 2.19806 1.13223 0
    endloop
  endfacet
  facet normal 0 0 -1
    outer loop
      vertex 2.19806 2.86777 0
      vertex -2.75302 3.56366 0
      vertex 1.04528 9.94522 0
    endloop
  endfacet
  facet normal -0 0 -1
    outer loop
      vertex 2.19806 2.86777 0
      vertex -2 2 0
      vertex -2.75302 3.56366 0
    endloop
  endfacet
  facet normal 0 0 -1
    outer loop
      vertex 3.55496 0.0501432 0
      vertex -2.75302 0.436337 0
      vertex 2.19806 1.13223 0
    endloop
  endfacet
  facet normal -0 0 -1
    outer loop
      vertex 2.19806 1.13223 0
      vertex -2.75302 0.436337 0
      vertex -2 2 0
    endloop
  endfacet
  facet normal 0 0 -1
    outer loop
      vertex -6.1986 -5 0
      vertex -2.75302 0.436337 0
      vertex 6.1986 -5 0
    endloop
  endfacet
  facet normal -0 0 -1
    outer loop
      vertex -4.44504 0.0501432 0
      vertex -9.78148 -2.07912 0
      vertex -5.80194 1.13223 0
    endloop
  endfacet
  facet normal 0 0 -1
    outer loop
      vertex -9.78148 -2.07912 0
      vertex -4.44504 0.0501432 0
      vertex -6.1986 -5 0
    endloop
  endfacet
  facet normal 0 0 -1
    outer loop
      vertex -2.75302 0.436337 0
      vertex -6.1986 -5 0
      vertex -4.44504 0.0501432 0
    endloop
  endfacet
  facet normal 0 0 -1
    outer loop
      vertex 5.24698 0.436337 0
      vertex 10 0 0
      vertex 9.78148 -2.07912 0
    endloop
  endfacet
  facet normal 0 0 -1
    outer loop
      vertex 6.1986 -5 0
      vertex 9.78148 -2.07912 0
      vertex 9.13545 -4.06737 0
    endloop
  endfacet
  facet normal 0 0 -1
    outer loop
      vertex 10 0 0
      vertex 6 2 0
      vertex 9.78148 2.07912 0
    endloop
  endfacet
  facet normal 0 0 -1
    outer loop
      vertex 6.1986 -5 0
      vertex 9.13545 -4.06737 0
      vertex 8.09017 -5.87785 0
    endloop
  endfacet
  facet normal -0 0 -1
    outer loop
      vertex 9.78148 2.07912 0
      vertex 6 2 0
      vertex 9.13545 4.06737 0
    endloop
  endfacet
  facet normal 0 0 -1
    outer loop
      vertex 5.98809 -5.30498 0
      vertex 8.09017 -5.87785 0
      vertex 6.69131 -7.43145 0
    endloop
  endfacet
  facet normal 0 0 -1
    outer loop
      vertex 5.24698 0.436337 0
      vertex 9.78148 -2.07912 0
      vertex 6.1986 -5 0
    endloop
  endfacet
  facet normal 0 0 -1
    outer loop
      vertex 5.24698 3.56366 0
      vertex 9.13545 4.06737 0
      vertex 6 2 0
    endloop
  endfacet
  facet normal 0 0 -1
    outer loop
      vertex 8.09017 -5.87785 0
      vertex 5.98809 -5.30498 0
      vertex 6.1986 -5 0
    endloop
  endfacet
  facet normal 0 0 -1
    outer loop
      vertex 4.54452 -6.58387 0
      vertex 6.69131 -7.43145 0
      vertex 5 -8.66025 0
    endloop
  endfacet
  facet normal 0 0 -1
    outer loop
      vertex 6.69131 -7.43145 0
      vertex 4.54452 -6.58387 0
      vertex 5.98809 -5.30498 0
    endloop
  endfacet
  facet normal 0 0 -1
    outer loop
      vertex 2.83684 -7.48013 0
      vertex 5 -8.66025 0
      vertex 3.09017 -9.51056 0
    endloop
  endfacet
  facet normal 0 0 -1
    outer loop
      vertex 5 -8.66025 0
      vertex 2.83684 -7.48013 0
      vertex 4.54452 -6.58387 0
    endloop
  endfacet
  facet normal 0 0 -1
    outer loop
      vertex 0.964293 -7.94167 0
      vertex 3.09017 -9.51056 0
      vertex 1.04528 -9.94522 0
    endloop
  endfacet
  facet normal 0 0 -1
    outer loop
      vertex 3.09017 -9.51056 0
      vertex 0.964293 -7.94167 0
      vertex 2.83684 -7.48013 0
    endloop
  endfacet
  facet normal 0 0 -1
    outer loop
      vertex 1.04528 -9.94522 0
      vertex -0.964293 -7.94167 0
      vertex 0.964293 -7.94167 0
    endloop
  endfacet
  facet normal 0 0 -1
    outer loop
      vertex -1.04528 -9.94522 0
      vertex -0.964293 -7.94167 0
      vertex 1.04528 -9.94522 0
    endloop
  endfacet
  facet normal 0 0 -1
    outer loop
      vertex -3.09017 -9.51056 0
      vertex -0.964293 -7.94167 0
      vertex -1.04528 -9.94522 0
    endloop
  endfacet
  facet normal -0 0 -1
    outer loop
      vertex -0.964293 -7.94167 0
      vertex -3.09017 -9.51056 0
      vertex -2.83684 -7.48013 0
    endloop
  endfacet
  facet normal 0 0 -1
    outer loop
      vertex -5 -8.66025 0
      vertex -2.83684 -7.48013 0
      vertex -3.09017 -9.51056 0
    endloop
  endfacet
  facet normal -0 0 -1
    outer loop
      vertex -2.83684 -7.48013 0
      vertex -5 -8.66025 0
      vertex -4.54452 -6.58387 0
    endloop
  endfacet
  facet normal 0 0 -1
    outer loop
      vertex -6.69131 -7.43145 0
      vertex -4.54452 -6.58387 0
      vertex -5 -8.66025 0
    endloop
  endfacet
  facet normal -0 0 -1
    outer loop
      vertex -4.54452 -6.58387 0
      vertex -6.69131 -7.43145 0
      vertex -5.98809 -5.30498 0
    endloop
  endfacet
  facet normal 0 0 -1
    outer loop
      vertex -8.09017 -5.87785 0
      vertex -5.98809 -5.30498 0
      vertex -6.69131 -7.43145 0
    endloop
  endfacet
  facet normal -0 0 -1
    outer loop
      vertex 9.13545 4.06737 0
      vertex 5.24698 3.56366 0
      vertex 8.09017 5.87785 0
    endloop
  endfacet
  facet normal -0 0 -1
    outer loop
      vertex 8.09017 5.87785 0
      vertex 5.24698 3.56366 0
      vertex 6.69131 7.43145 0
    endloop
  endfacet
  facet normal 0 0 -1
    outer loop
      vertex 3.55496 3.94986 0
      vertex 6.69131 7.43145 0
      vertex 5.24698 3.56366 0
    endloop
  endfacet
  facet normal -0 0 -1
    outer loop
      vertex 6.69131 7.43145 0
      vertex 3.55496 3.94986 0
      vertex 5 8.66025 0
    endloop
  endfacet
  facet normal 0 0 -1
    outer loop
      vertex 3.55496 3.94986 0
      vertex 3.09017 9.51056 0
      vertex 5 8.66025 0
    endloop
  endfacet
  facet normal 0 0 -1
    outer loop
      vertex 1.04528 9.94522 0
      vertex 3.55496 3.94986 0
      vertex 2.19806 2.86777 0
    endloop
  endfacet
  facet normal 0 0 -1
    outer loop
      vertex 3.55496 3.94986 0
      vertex 1.04528 9.94522 0
      vertex 3.09017 9.51056 0
    endloop
  endfacet
  facet normal -0 0 -1
    outer loop
      vertex 1.04528 9.94522 0
      vertex -2.75302 3.56366 0
      vertex -1.04528 9.94522 0
    endloop
  endfacet
  facet normal 0 0 -1
    outer loop
      vertex -2.75302 3.56366 0
      vertex -3.09017 9.51056 0
      vertex -1.04528 9.94522 0
    endloop
  endfacet
  facet normal 0 0 -1
    outer loop
      vertex -5 8.66025 0
      vertex -2.75302 3.56366 0
      vertex -4.44504 3.94986 0
    endloop
  endfacet
  facet normal 0 0 -1
    outer loop
      vertex -2.75302 3.56366 0
      vertex -5 8.66025 0
      vertex -3.09017 9.51056 0
    endloop
  endfacet
  facet normal 0 0 -1
    outer loop
      vertex -8.09017 5.87785 0
      vertex -4.44504 3.94986 0
      vertex -5.80194 2.86777 0
    endloop
  endfacet
  facet normal -0 0 -1
    outer loop
      vertex -5.98809 -5.30498 0
      vertex -8.09017 -5.87785 0
      vertex -6.1986 -5 0
    endloop
  endfacet
  facet normal 0 0 -1
    outer loop
      vertex -4.44504 3.94986 0
      vertex -6.69131 7.43145 0
      vertex -5 8.66025 0
    endloop
  endfacet
  facet normal 0 0 -1
    outer loop
      vertex -9.13545 -4.06737 0
      vertex -6.1986 -5 0
      vertex -8.09017 -5.87785 0
    endloop
  endfacet
  facet normal 0 0 -1
    outer loop
      vertex -9.78148 -2.07912 0
      vertex -6.1986 -5 0
      vertex -9.13545 -4.06737 0
    endloop
  endfacet
  facet normal 0 0 -1
    outer loop
      vertex -4.44504 3.94986 0
      vertex -8.09017 5.87785 0
      vertex -6.69131 7.43145 0
    endloop
  endfacet
  facet normal 0 0 -1
    outer loop
      vertex -10 0 0
      vertex -5.80194 1.13223 0
      vertex -9.78148 -2.07912 0
    endloop
  endfacet
  facet normal 0 0 -1
    outer loop
      vertex -5.80194 2.86777 0
      vertex -9.13545 4.06737 0
      vertex -8.09017 5.87785 0
    endloop
  endfacet
  facet normal 0 -0 -1
    outer loop
      vertex -9.78148 2.07912 0
      vertex -5.80194 1.13223 0
      vertex -10 0 0
    endloop
  endfacet
  facet normal -0 0 -1
    outer loop
      vertex -5.80194 2.86777 0
      vertex -9.78148 2.07912 0
      vertex -9.13545 4.06737 0
    endloop
  endfacet
  facet normal 0 0 -1
    outer loop
      vertex -5.80194 1.13223 0
      vertex -9.78148 2.07912 0
      vertex -5.80194 2.86777 0
    endloop
  endfacet
  facet normal -0.464723 0.885456 0
    outer loop
      vertex 4.54452 -6.58387 0
      vertex 2.83684 -7.48013 3
      vertex 4.54452 -6.58387 3
    endloop
  endfacet
  facet normal -0.464723 0.885456 0
    outer loop
      vertex 2.83684 -7.48013 3
      vertex 4.54452 -6.58387 0
      vertex 2.83684 -7.48013 0
    endloop
  endfacet
  facet normal 0 1 -0
    outer loop
      vertex 0.964293 -7.94167 0
      vertex -0.964293 -7.94167 3
      vertex 0.964293 -7.94167 3
    endloop
  endfacet
  facet normal 0 1 0
    outer loop
      vertex -0.964293 -7.94167 3
      vertex 0.964293 -7.94167 0
      vertex -0.964293 -7.94167 0
    endloop
  endfacet
  facet normal 0.822987 0.56806 0
    outer loop
      vertex -5.98809 -5.30498 3
      vertex -6.1986 -5 0
      vertex -6.1986 -5 3
    endloop
  endfacet
  facet normal 0.822987 0.56806 0
    outer loop
      vertex -6.1986 -5 0
      vertex -5.98809 -5.30498 3
      vertex -5.98809 -5.30498 0
    endloop
  endfacet
  facet normal 0.464723 0.885456 -0
    outer loop
      vertex -2.83684 -7.48013 0
      vertex -4.54452 -6.58387 3
      vertex -2.83684 -7.48013 3
    endloop
  endfacet
  facet normal 0.464723 0.885456 0
    outer loop
      vertex -4.54452 -6.58387 3
      vertex -2.83684 -7.48013 0
      vertex -4.54452 -6.58387 0
    endloop
  endfacet
  facet normal 0 -1 0
    outer loop
      vertex -6.1986 -5 0
      vertex 6.1986 -5 3
      vertex -6.1986 -5 3
    endloop
  endfacet
  facet normal 0 -1 -0
    outer loop
      vertex 6.1986 -5 3
      vertex -6.1986 -5 0
      vertex 6.1986 -5 0
    endloop
  endfacet
  facet normal -0.743147 -0.669129 0
    outer loop
      vertex -6.69131 -7.43145 0
      vertex -8.09017 -5.87785 3
      vertex -8.09017 -5.87785 0
    endloop
  endfacet
  facet normal -0.743147 -0.669129 0
    outer loop
      vertex -8.09017 -5.87785 3
      vertex -6.69131 -7.43145 0
      vertex -6.69131 -7.43145 3
    endloop
  endfacet
  facet normal 0.951055 0.309021 0
    outer loop
      vertex 9.78148 2.07912 3
      vertex 9.13545 4.06737 0
      vertex 9.13545 4.06737 3
    endloop
  endfacet
  facet normal 0.951055 0.309021 0
    outer loop
      vertex 9.13545 4.06737 0
      vertex 9.78148 2.07912 3
      vertex 9.78148 2.07912 0
    endloop
  endfacet
  facet normal 0.994522 0.104526 0
    outer loop
      vertex 10 0 3
      vertex 9.78148 2.07912 0
      vertex 9.78148 2.07912 3
    endloop
  endfacet
  facet normal 0.994522 0.104526 0
    outer loop
      vertex 9.78148 2.07912 0
      vertex 10 0 3
      vertex 10 0 0
    endloop
  endfacet
  facet normal 0.866026 0.5 0
    outer loop
      vertex 9.13545 4.06737 3
      vertex 8.09017 5.87785 0
      vertex 8.09017 5.87785 3
    endloop
  endfacet
  facet normal 0.866026 0.5 0
    outer loop
      vertex 8.09017 5.87785 0
      vertex 9.13545 4.06737 3
      vertex 9.13545 4.06737 0
    endloop
  endfacet
  facet normal 0.951055 -0.309021 0
    outer loop
      vertex 9.13545 -4.06737 3
      vertex 9.78148 -2.07912 0
      vertex 9.78148 -2.07912 3
    endloop
  endfacet
  facet normal 0.951055 -0.309021 0
    outer loop
      vertex 9.78148 -2.07912 0
      vertex 9.13545 -4.06737 3
      vertex 9.13545 -4.06737 0
    endloop
  endfacet
  facet normal 0.587783 -0.809019 0
    outer loop
      vertex 5 -8.66025 0
      vertex 6.69131 -7.43145 3
      vertex 5 -8.66025 3
    endloop
  endfacet
  facet normal 0.587783 -0.809019 0
    outer loop
      vertex 6.69131 -7.43145 3
      vertex 5 -8.66025 0
      vertex 6.69131 -7.43145 0
    endloop
  endfacet
  facet normal 0.743147 -0.669129 0
    outer loop
      vertex 6.69131 -7.43145 3
      vertex 8.09017 -5.87785 0
      vertex 8.09017 -5.87785 3
    endloop
  endfacet
  facet normal 0.743147 -0.669129 0
    outer loop
      vertex 8.09017 -5.87785 0
      vertex 6.69131 -7.43145 3
      vertex 6.69131 -7.43145 0
    endloop
  endfacet
  facet normal 0.994522 -0.104526 0
    outer loop
      vertex 9.78148 -2.07912 3
      vertex 10 0 0
      vertex 10 0 3
    endloop
  endfacet
  facet normal 0.994522 -0.104526 0
    outer loop
      vertex 10 0 0
      vertex 9.78148 -2.07912 3
      vertex 9.78148 -2.07912 0
    endloop
  endfacet
  facet normal -0.406736 -0.913546 0
    outer loop
      vertex -5 -8.66025 0
      vertex -3.09017 -9.51056 3
      vertex -5 -8.66025 3
    endloop
  endfacet
  facet normal -0.406736 -0.913546 -0
    outer loop
      vertex -3.09017 -9.51056 3
      vertex -5 -8.66025 0
      vertex -3.09017 -9.51056 0
    endloop
  endfacet
  facet normal 0.406736 0.913546 -0
    outer loop
      vertex 5 8.66025 0
      vertex 3.09017 9.51056 3
      vertex 5 8.66025 3
    endloop
  endfacet
  facet normal 0.406736 0.913546 0
    outer loop
      vertex 3.09017 9.51056 3
      vertex 5 8.66025 0
      vertex 3.09017 9.51056 0
    endloop
  endfacet
  facet normal 0.743147 0.669129 0
    outer loop
      vertex 8.09017 5.87785 3
      vertex 6.69131 7.43145 0
      vertex 6.69131 7.43145 3
    endloop
  endfacet
  facet normal 0.743147 0.669129 0
    outer loop
      vertex 6.69131 7.43145 0
      vertex 8.09017 5.87785 3
      vertex 8.09017 5.87785 0
    endloop
  endfacet
  facet normal -0.587783 -0.809019 0
    outer loop
      vertex -6.69131 -7.43145 0
      vertex -5 -8.66025 3
      vertex -6.69131 -7.43145 3
    endloop
  endfacet
  facet normal -0.587783 -0.809019 -0
    outer loop
      vertex -5 -8.66025 3
      vertex -6.69131 -7.43145 0
      vertex -5 -8.66025 0
    endloop
  endfacet
  facet normal -0.743147 0.669129 0
    outer loop
      vertex -8.09017 5.87785 0
      vertex -6.69131 7.43145 3
      vertex -6.69131 7.43145 0
    endloop
  endfacet
  facet normal -0.743147 0.669129 0
    outer loop
      vertex -6.69131 7.43145 3
      vertex -8.09017 5.87785 0
      vertex -8.09017 5.87785 3
    endloop
  endfacet
  facet normal 0 1 -0
    outer loop
      vertex 1.04528 9.94522 0
      vertex -1.04528 9.94522 3
      vertex 1.04528 9.94522 3
    endloop
  endfacet
  facet normal 0 1 0
    outer loop
      vertex -1.04528 9.94522 3
      vertex 1.04528 9.94522 0
      vertex -1.04528 9.94522 0
    endloop
  endfacet
  facet normal 0.406736 -0.913546 0
    outer loop
      vertex 3.09017 -9.51056 0
      vertex 5 -8.66025 3
      vertex 3.09017 -9.51056 3
    endloop
  endfacet
  facet normal 0.406736 -0.913546 0
    outer loop
      vertex 5 -8.66025 3
      vertex 3.09017 -9.51056 0
      vertex 5 -8.66025 0
    endloop
  endfacet
  facet normal 0.207914 -0.978147 0
    outer loop
      vertex 1.04528 -9.94522 0
      vertex 3.09017 -9.51056 3
      vertex 1.04528 -9.94522 3
    endloop
  endfacet
  facet normal 0.207914 -0.978147 0
    outer loop
      vertex 3.09017 -9.51056 3
      vertex 1.04528 -9.94522 0
      vertex 3.09017 -9.51056 0
    endloop
  endfacet
  facet normal -0.951055 0.309021 0
    outer loop
      vertex -9.78148 2.07912 0
      vertex -9.13545 4.06737 3
      vertex -9.13545 4.06737 0
    endloop
  endfacet
  facet normal -0.951055 0.309021 0
    outer loop
      vertex -9.13545 4.06737 3
      vertex -9.78148 2.07912 0
      vertex -9.78148 2.07912 3
    endloop
  endfacet
  facet normal -0.951055 -0.309021 0
    outer loop
      vertex -9.13545 -4.06737 0
      vertex -9.78148 -2.07912 3
      vertex -9.78148 -2.07912 0
    endloop
  endfacet
  facet normal -0.951055 -0.309021 0
    outer loop
      vertex -9.78148 -2.07912 3
      vertex -9.13545 -4.06737 0
      vertex -9.13545 -4.06737 3
    endloop
  endfacet
  facet normal -0.406736 0.913546 0
    outer loop
      vertex -3.09017 9.51056 0
      vertex -5 8.66025 3
      vertex -3.09017 9.51056 3
    endloop
  endfacet
  facet normal -0.406736 0.913546 0
    outer loop
      vertex -5 8.66025 3
      vertex -3.09017 9.51056 0
      vertex -5 8.66025 0
    endloop
  endfacet
  facet normal -0.207914 -0.978147 0
    outer loop
      vertex -3.09017 -9.51056 0
      vertex -1.04528 -9.94522 3
      vertex -3.09017 -9.51056 3
    endloop
  endfacet
  facet normal -0.207914 -0.978147 -0
    outer loop
      vertex -1.04528 -9.94522 3
      vertex -3.09017 -9.51056 0
      vertex -1.04528 -9.94522 0
    endloop
  endfacet
  facet normal 0.207914 0.978147 -0
    outer loop
      vertex 3.09017 9.51056 0
      vertex 1.04528 9.94522 3
      vertex 3.09017 9.51056 3
    endloop
  endfacet
  facet normal 0.207914 0.978147 0
    outer loop
      vertex 1.04528 9.94522 3
      vertex 3.09017 9.51056 0
      vertex 1.04528 9.94522 0
    endloop
  endfacet
  facet normal -0.994522 -0.104526 0
    outer loop
      vertex -9.78148 -2.07912 0
      vertex -10 0 3
      vertex -10 0 0
    endloop
  endfacet
  facet normal -0.994522 -0.104526 0
    outer loop
      vertex -10 0 3
      vertex -9.78148 -2.07912 0
      vertex -9.78148 -2.07912 3
    endloop
  endfacet
  facet normal -0.994522 0.104526 0
    outer loop
      vertex -10 0 0
      vertex -9.78148 2.07912 3
      vertex -9.78148 2.07912 0
    endloop
  endfacet
  facet normal -0.994522 0.104526 0
    outer loop
      vertex -9.78148 2.07912 3
      vertex -10 0 0
      vertex -10 0 3
    endloop
  endfacet
  facet normal -0.866026 -0.5 0
    outer loop
      vertex -8.09017 -5.87785 0
      vertex -9.13545 -4.06737 3
      vertex -9.13545 -4.06737 0
    endloop
  endfacet
  facet normal -0.866026 -0.5 0
    outer loop
      vertex -9.13545 -4.06737 3
      vertex -8.09017 -5.87785 0
      vertex -8.09017 -5.87785 3
    endloop
  endfacet
  facet normal -0.866026 0.5 0
    outer loop
      vertex -9.13545 4.06737 0
      vertex -8.09017 5.87785 3
      vertex -8.09017 5.87785 0
    endloop
  endfacet
  facet normal -0.866026 0.5 0
    outer loop
      vertex -8.09017 5.87785 3
      vertex -9.13545 4.06737 0
      vertex -9.13545 4.06737 3
    endloop
  endfacet
  facet normal 0.866026 -0.5 0
    outer loop
      vertex 8.09017 -5.87785 3
      vertex 9.13545 -4.06737 0
      vertex 9.13545 -4.06737 3
    endloop
  endfacet
  facet normal 0.866026 -0.5 0
    outer loop
      vertex 9.13545 -4.06737 0
      vertex 8.09017 -5.87785 3
      vertex 8.09017 -5.87785 0
    endloop
  endfacet
  facet normal 0.587783 0.809019 -0
    outer loop
      vertex 6.69131 7.43145 0
      vertex 5 8.66025 3
      vertex 6.69131 7.43145 3
    endloop
  endfacet
  facet normal 0.587783 0.809019 0
    outer loop
      vertex 5 8.66025 3
      vertex 6.69131 7.43145 0
      vertex 5 8.66025 0
    endloop
  endfacet
  facet normal -0.587783 0.809019 0
    outer loop
      vertex -5 8.66025 0
      vertex -6.69131 7.43145 3
      vertex -5 8.66025 3
    endloop
  endfacet
  facet normal -0.587783 0.809019 0
    outer loop
      vertex -6.69131 7.43145 3
      vertex -5 8.66025 0
      vertex -6.69131 7.43145 0
    endloop
  endfacet
  facet normal -0.207914 0.978147 0
    outer loop
      vertex -1.04528 9.94522 0
      vertex -3.09017 9.51056 3
      vertex -1.04528 9.94522 3
    endloop
  endfacet
  facet normal -0.207914 0.978147 0
    outer loop
      vertex -3.09017 9.51056 3
      vertex -1.04528 9.94522 0
      vertex -3.09017 9.51056 0
    endloop
  endfacet
  facet normal 0 -1 0
    outer loop
      vertex -1.04528 -9.94522 0
      vertex 1.04528 -9.94522 3
      vertex -1.04528 -9.94522 3
    endloop
  endfacet
  facet normal 0 -1 -0
    outer loop
      vertex 1.04528 -9.94522 3
      vertex -1.04528 -9.94522 0
      vertex 1.04528 -9.94522 0
    endloop
  endfacet
  facet normal -0.222525 -0.974927 0
    outer loop
      vertex 3.55496 3.94986 0
      vertex 5.24698 3.56366 3
      vertex 3.55496 3.94986 3
    endloop
  endfacet
  facet normal -0.222525 -0.974927 -0
    outer loop
      vertex 5.24698 3.56366 3
      vertex 3.55496 3.94986 0
      vertex 5.24698 3.56366 0
    endloop
  endfacet
  facet normal -0.900969 -0.433884 0
    outer loop
      vertex 6 2 0
      vertex 5.24698 3.56366 3
      vertex 5.24698 3.56366 0
    endloop
  endfacet
  facet normal -0.900969 -0.433884 0
    outer loop
      vertex 5.24698 3.56366 3
      vertex 6 2 0
      vertex 6 2 3
    endloop
  endfacet
  facet normal -0.900969 0.433884 0
    outer loop
      vertex 5.24698 0.436337 0
      vertex 6 2 3
      vertex 6 2 0
    endloop
  endfacet
  facet normal -0.900969 0.433884 0
    outer loop
      vertex 6 2 3
      vertex 5.24698 0.436337 0
      vertex 5.24698 0.436337 3
    endloop
  endfacet
  facet normal 0.623488 0.781833 -0
    outer loop
      vertex 3.55496 0.0501432 0
      vertex 2.19806 1.13223 3
      vertex 3.55496 0.0501432 3
    endloop
  endfacet
  facet normal 0.623488 0.781833 0
    outer loop
      vertex 2.19806 1.13223 3
      vertex 3.55496 0.0501432 0
      vertex 2.19806 1.13223 0
    endloop
  endfacet
  facet normal -0.222522 0.974928 0
    outer loop
      vertex 5.24698 0.436337 0
      vertex 3.55496 0.0501432 3
      vertex 5.24698 0.436337 3
    endloop
  endfacet
  facet normal -0.222522 0.974928 0
    outer loop
      vertex 3.55496 0.0501432 3
      vertex 5.24698 0.436337 0
      vertex 3.55496 0.0501432 0
    endloop
  endfacet
  facet normal 1 -0 0
    outer loop
      vertex 2.19806 1.13223 3
      vertex 2.19806 2.86777 0
      vertex 2.19806 2.86777 3
    endloop
  endfacet
  facet normal 1 0 0
    outer loop
      vertex 2.19806 2.86777 0
      vertex 2.19806 1.13223 3
      vertex 2.19806 1.13223 0
    endloop
  endfacet
  facet normal 0.623489 -0.781832 0
    outer loop
      vertex 2.19806 2.86777 0
      vertex 3.55496 3.94986 3
      vertex 2.19806 2.86777 3
    endloop
  endfacet
  facet normal 0.623489 -0.781832 0
    outer loop
      vertex 3.55496 3.94986 3
      vertex 2.19806 2.86777 0
      vertex 3.55496 3.94986 0
    endloop
  endfacet
  facet normal -0.222525 -0.974927 0
    outer loop
      vertex -4.44504 3.94986 0
      vertex -2.75302 3.56366 3
      vertex -4.44504 3.94986 3
    endloop
  endfacet
  facet normal -0.222525 -0.974927 -0
    outer loop
      vertex -2.75302 3.56366 3
      vertex -4.44504 3.94986 0
      vertex -2.75302 3.56366 0
    endloop
  endfacet
  facet normal -0.900969 -0.433884 0
    outer loop
      vertex -2 2 0
      vertex -2.75302 3.56366 3
      vertex -2.75302 3.56366 0
    endloop
  endfacet
  facet normal -0.900969 -0.433884 0
    outer loop
      vertex -2.75302 3.56366 3
      vertex -2 2 0
      vertex -2 2 3
    endloop
  endfacet
  facet normal -0.900969 0.433884 0
    outer loop
      vertex -2.75302 0.436337 0
      vertex -2 2 3
      vertex -2 2 0
    endloop
  endfacet
  facet normal -0.900969 0.433884 0
    outer loop
      vertex -2 2 3
      vertex -2.75302 0.436337 0
      vertex -2.75302 0.436337 3
    endloop
  endfacet
  facet normal 0.623489 -0.781832 0
    outer loop
      vertex -5.80194 2.86777 0
      vertex -4.44504 3.94986 3
      vertex -5.80194 2.86777 3
    endloop
  endfacet
  facet normal 0.623489 -0.781832 0
    outer loop
      vertex -4.44504 3.94986 3
      vertex -5.80194 2.86777 0
      vertex -4.44504 3.94986 0
    endloop
  endfacet
  facet normal 0.623488 0.781833 -0
    outer loop
      vertex -4.44504 0.0501432 0
      vertex -5.80194 1.13223 3
      vertex -4.44504 0.0501432 3
    endloop
  endfacet
  facet normal 0.623488 0.781833 0
    outer loop
      vertex -5.80194 1.13223 3
      vertex -4.44504 0.0501432 0
      vertex -5.80194 1.13223 0
    endloop
  endfacet
  facet normal -0.222522 0.974928 0
    outer loop
      vertex -2.75302 0.436337 0
      vertex -4.44504 0.0501432 3
      vertex -2.75302 0.436337 3
    endloop
  endfacet
  facet normal -0.222522 0.974928 0
    outer loop
      vertex -4.44504 0.0501432 3
      vertex -2.75302 0.436337 0
      vertex -4.44504 0.0501432 0
    endloop
  endfacet
  facet normal 1 -0 0
    outer loop
      vertex -5.80194 1.13223 3
      vertex -5.80194 2.86777 0
      vertex -5.80194 2.86777 3
    endloop
  endfacet
  facet normal 1 0 0
    outer loop
      vertex -5.80194 2.86777 0
      vertex -5.80194 1.13223 3
      vertex -5.80194 1.13223 0
    endloop
  endfacet
endsolid OpenSCAD_Model
