solid OpenSCAD_Model
  facet normal 0 0 1
    outer loop
      vertex 3.47542 33.5483 5
      vertex 4.20115 31.5167 5
      vertex 4.09731 33.0265 5
    endloop
  endfacet
  facet normal 0 0 1
    outer loop
      vertex 1.90735e-07 31.3105 5
      vertex 4.20115 31.5167 5
      vertex 3.47542 33.5483 5
    endloop
  endfacet
  facet normal 0 0 1
    outer loop
      vertex 4.20115 31.5167 5
      vertex 1.90735e-07 31.3105 5
      vertex 3.37492 29.9081 5
    endloop
  endfacet
  facet normal 0 0 1
    outer loop
      vertex 3.37492 29.9081 5
      vertex 1.90735e-07 31.3105 5
      vertex 1.93421 28.8151 5
    endloop
  endfacet
  facet normal 0 0 1
    outer loop
      vertex 1.93421 28.8151 5
      vertex 1.90735e-07 31.3105 5
      vertex 0.713559 28.6854 5
    endloop
  endfacet
  facet normal 0 0 1
    outer loop
      vertex 1.90735e-07 31.3105 5
      vertex -0.254783 28.9064 5
      vertex 0.713559 28.6854 5
    endloop
  endfacet
  facet normal 0 0 1
    outer loop
      vertex 1.90735e-07 31.3105 5
      vertex -1.19675 29.3672 5
      vertex -0.254783 28.9064 5
    endloop
  endfacet
  facet normal 0 0 1
    outer loop
      vertex 1.90735e-07 31.3105 5
      vertex -2.17674 30.8871 5
      vertex -1.19675 29.3672 5
    endloop
  endfacet
  facet normal -0 0 1
    outer loop
      vertex -2.40297 32.6812 5
      vertex 1.90735e-07 31.3105 5
      vertex -2.34203 32.8185 5
    endloop
  endfacet
  facet normal 0 0 1
    outer loop
      vertex 1.90735e-07 31.3105 5
      vertex -2.40297 32.6812 5
      vertex -2.17674 30.8871 5
    endloop
  endfacet
  facet normal 0 0 1
    outer loop
      vertex 6.12156 26.2404 5
      vertex 4.88437 25.4068 5
      vertex 6.32467 25.9615 5
    endloop
  endfacet
  facet normal 0 0 1
    outer loop
      vertex 4.45464 26.9416 5
      vertex 4.88437 25.4068 5
      vertex 6.12156 26.2404 5
    endloop
  endfacet
  facet normal -0 0 1
    outer loop
      vertex 2.64842 26.8528 5
      vertex 4.88437 25.4068 5
      vertex 4.45464 26.9416 5
    endloop
  endfacet
  facet normal -0 0 1
    outer loop
      vertex 1.58434 26.1369 5
      vertex 4.88437 25.4068 5
      vertex 2.64842 26.8528 5
    endloop
  endfacet
  facet normal -0 0 1
    outer loop
      vertex 1.24698 25.4363 5
      vertex 4.88437 25.4068 5
      vertex 1.58434 26.1369 5
    endloop
  endfacet
  facet normal 0 0 1
    outer loop
      vertex 0.604832 24.4174 5
      vertex 1.24698 25.4363 5
      vertex 1.03571 25.3881 5
    endloop
  endfacet
  facet normal 0 -0 1
    outer loop
      vertex 0.810806 22.7838 5
      vertex 1.24698 25.4363 5
      vertex 0.604832 24.4174 5
    endloop
  endfacet
  facet normal 0 0 1
    outer loop
      vertex 1.24698 25.4363 5
      vertex 0.810806 22.7838 5
      vertex 4.88437 25.4068 5
    endloop
  endfacet
  facet normal -0 0 1
    outer loop
      vertex -0.445042 25.0501 5
      vertex 0.604832 24.4174 5
      vertex 1.03571 25.3881 5
    endloop
  endfacet
  facet normal 0 0 1
    outer loop
      vertex -0.688231 23.0968 5
      vertex 0.604832 24.4174 5
      vertex -0.445042 25.0501 5
    endloop
  endfacet
  facet normal 0 0 1
    outer loop
      vertex 0.604832 24.4174 5
      vertex -0.688231 23.0968 5
      vertex 1.90735e-07 22.0286 5
    endloop
  endfacet
  facet normal 0 0 1
    outer loop
      vertex 1.90735e-07 22.0286 5
      vertex -0.688231 23.0968 5
      vertex -0.57427 22.564 5
    endloop
  endfacet
  facet normal -0 0 1
    outer loop
      vertex -1.45167 24.78 5
      vertex -0.688231 23.0968 5
      vertex -0.445042 25.0501 5
    endloop
  endfacet
  facet normal -0 0 1
    outer loop
      vertex -2.06288 23.59 5
      vertex -0.688231 23.0968 5
      vertex -1.45167 24.78 5
    endloop
  endfacet
  facet normal 0 -0 1
    outer loop
      vertex -1.45167 24.78 5
      vertex -0.445042 25.0501 5
      vertex -1.52974 25.9152 5
    endloop
  endfacet
  facet normal 0 0 1
    outer loop
      vertex 0.604832 24.4174 5
      vertex 0.808099 22.7821 5
      vertex 0.810806 22.7838 5
    endloop
  endfacet
  facet normal 0 0 1
    outer loop
      vertex 0.808099 22.7821 5
      vertex 0.604832 24.4174 5
      vertex 1.90735e-07 22.0286 5
    endloop
  endfacet
  facet normal 0 0 1
    outer loop
      vertex -0.688231 23.0968 5
      vertex -2.06288 23.59 5
      vertex -0.863248 22.8176 5
    endloop
  endfacet
  facet normal -0 0 1
    outer loop
      vertex 4.09731 33.0265 5
      vertex 5.93467 32.3755 5
      vertex 5.76154 33.9357 5
    endloop
  endfacet
  facet normal 0 0 1
    outer loop
      vertex 4.09731 33.0265 5
      vertex 5.76154 33.9357 5
      vertex 5.44789 34.3983 5
    endloop
  endfacet
  facet normal 0 0 1
    outer loop
      vertex 5.93467 32.3755 5
      vertex 4.09731 33.0265 5
      vertex 4.20115 31.5167 5
    endloop
  endfacet
  facet normal 0 0 1
    outer loop
      vertex 3.37492 29.9081 5
      vertex 5.4732 30.6452 5
      vertex 4.20115 31.5167 5
    endloop
  endfacet
  facet normal 0 0 1
    outer loop
      vertex 5.93467 32.3755 5
      vertex 4.20115 31.5167 5
      vertex 5.4732 30.6452 5
    endloop
  endfacet
  facet normal -0 0 1
    outer loop
      vertex 3.82414 33.7729 5
      vertex 4.09731 33.0265 5
      vertex 5.44789 34.3983 5
    endloop
  endfacet
  facet normal 0 0 1
    outer loop
      vertex 4.09731 33.0265 5
      vertex 3.82414 33.7729 5
      vertex 3.47542 33.5483 5
    endloop
  endfacet
  facet normal 0 0 1
    outer loop
      vertex 5.4732 30.6452 5
      vertex 3.37492 29.9081 5
      vertex 4.44737 29.0082 5
    endloop
  endfacet
  facet normal 0 0 1
    outer loop
      vertex 4.44737 29.0082 5
      vertex 3.37492 29.9081 5
      vertex 3.72434 28.3555 5
    endloop
  endfacet
  facet normal 0 0 1
    outer loop
      vertex 6.12156 26.2404 5
      vertex 8.00155 26.6968 5
      vertex 6.53582 27.7257 5
    endloop
  endfacet
  facet normal 0 -0 1
    outer loop
      vertex 6.32467 25.9615 5
      vertex 8.00155 26.6968 5
      vertex 6.12156 26.2404 5
    endloop
  endfacet
  facet normal 0 0 1
    outer loop
      vertex 8.00155 26.6968 5
      vertex 6.32467 25.9615 5
      vertex 8.04892 26.6257 5
    endloop
  endfacet
  facet normal 0 0 1
    outer loop
      vertex 4.45464 26.9416 5
      vertex 6.53582 27.7257 5
      vertex 4.69775 28.3203 5
    endloop
  endfacet
  facet normal 0 0 1
    outer loop
      vertex 6.53582 27.7257 5
      vertex 4.45464 26.9416 5
      vertex 6.12156 26.2404 5
    endloop
  endfacet
  facet normal 0 0 1
    outer loop
      vertex 3.72434 28.3555 5
      vertex 4.45464 26.9416 5
      vertex 4.69775 28.3203 5
    endloop
  endfacet
  facet normal 0 0 1
    outer loop
      vertex 3.72434 28.3555 5
      vertex 2.64842 26.8528 5
      vertex 4.45464 26.9416 5
    endloop
  endfacet
  facet normal -0 0 1
    outer loop
      vertex 1.93421 28.8151 5
      vertex 3.72434 28.3555 5
      vertex 3.37492 29.9081 5
    endloop
  endfacet
  facet normal 0 0 1
    outer loop
      vertex 3.72434 28.3555 5
      vertex 1.93421 28.8151 5
      vertex 2.64842 26.8528 5
    endloop
  endfacet
  facet normal 0 0 1
    outer loop
      vertex 2.64842 26.8528 5
      vertex 1.93421 28.8151 5
      vertex 2 27 5
    endloop
  endfacet
  facet normal 0 0 1
    outer loop
      vertex 1.93421 28.8151 5
      vertex 1.24698 28.5637 5
      vertex 2 27 5
    endloop
  endfacet
  facet normal 0 -0 1
    outer loop
      vertex 1.24698 28.5637 5
      vertex 1.93421 28.8151 5
      vertex 0.713559 28.6854 5
    endloop
  endfacet
  facet normal 0 0 1
    outer loop
      vertex 2.64842 26.8528 5
      vertex 2 27 5
      vertex 1.58434 26.1369 5
    endloop
  endfacet
  facet normal 0 0 1
    outer loop
      vertex -0.688231 23.0968 5
      vertex -0.808118 22.7821 5
      vertex -0.57427 22.564 5
    endloop
  endfacet
  facet normal 0 -0 1
    outer loop
      vertex -0.808118 22.7821 5
      vertex -0.688231 23.0968 5
      vertex -0.863248 22.8176 5
    endloop
  endfacet
  facet normal 0 0 1
    outer loop
      vertex 35.2198 12.9617 5
      vertex 27.2983 14.955 5
      vertex 27.9079 10.1452 5
    endloop
  endfacet
  facet normal 0 0 1
    outer loop
      vertex 32.3954 25.3309 5
      vertex 25.8366 19.216 5
      vertex 27.2983 14.955 5
    endloop
  endfacet
  facet normal 0 0 1
    outer loop
      vertex 20.6467 25.3791 5
      vertex 29.3272 30.1392 5
      vertex 25.3182 33.7351 5
    endloop
  endfacet
  facet normal 0 0 1
    outer loop
      vertex 32.3954 25.3309 5
      vertex 23.5866 22.742 5
      vertex 25.8366 19.216 5
    endloop
  endfacet
  facet normal 0 0 1
    outer loop
      vertex 29.3272 30.1392 5
      vertex 20.6467 25.3791 5
      vertex 23.5866 22.742 5
    endloop
  endfacet
  facet normal 0 0 1
    outer loop
      vertex 20.5436 35.9616 5
      vertex 20.6467 25.3791 5
      vertex 25.3182 33.7351 5
    endloop
  endfacet
  facet normal 0 0 1
    outer loop
      vertex 20.5436 35.9616 5
      vertex 17.1453 27.0118 5
      vertex 20.6467 25.3791 5
    endloop
  endfacet
  facet normal 0 0 1
    outer loop
      vertex 15.212 36.7212 5
      vertex 17.1453 27.0118 5
      vertex 20.5436 35.9616 5
    endloop
  endfacet
  facet normal 0 0 1
    outer loop
      vertex 15.212 36.7212 5
      vertex 13.2354 27.5689 5
      vertex 17.1453 27.0118 5
    endloop
  endfacet
  facet normal -0 0 1
    outer loop
      vertex 9.55644 35.9809 5
      vertex 13.2354 27.5689 5
      vertex 15.212 36.7212 5
    endloop
  endfacet
  facet normal 0 0 1
    outer loop
      vertex 9.55644 35.9809 5
      vertex 9.08806 27.026 5
      vertex 13.2354 27.5689 5
    endloop
  endfacet
  facet normal -0 0 1
    outer loop
      vertex 5.93467 32.3755 5
      vertex 9.08806 27.026 5
      vertex 9.55644 35.9809 5
    endloop
  endfacet
  facet normal 0 0 1
    outer loop
      vertex 9.08806 27.026 5
      vertex 8.00155 26.6968 5
      vertex 8.04892 26.6257 5
    endloop
  endfacet
  facet normal -0 0 1
    outer loop
      vertex 5.4732 30.6452 5
      vertex 9.08806 27.026 5
      vertex 5.93467 32.3755 5
    endloop
  endfacet
  facet normal 0 0 1
    outer loop
      vertex 9.08806 27.026 5
      vertex 6.53582 27.7257 5
      vertex 8.00155 26.6968 5
    endloop
  endfacet
  facet normal 0 0 1
    outer loop
      vertex 9.55644 35.9809 5
      vertex 5.76154 33.9357 5
      vertex 5.93467 32.3755 5
    endloop
  endfacet
  facet normal 0 -0 1
    outer loop
      vertex 5.76154 33.9357 5
      vertex 9.55644 35.9809 5
      vertex 5.44789 34.3983 5
    endloop
  endfacet
  facet normal -0 0 1
    outer loop
      vertex 27.2983 14.955 5
      vertex 35.2198 12.9617 5
      vertex 34.3886 19.5204 5
    endloop
  endfacet
  facet normal 0 0 1
    outer loop
      vertex 35.2198 12.9617 5
      vertex 27.9079 10.1452 5
      vertex 34.8526 5.94139 5
    endloop
  endfacet
  facet normal 0 0 1
    outer loop
      vertex 27.2983 14.955 5
      vertex 34.3886 19.5204 5
      vertex 32.3954 25.3309 5
    endloop
  endfacet
  facet normal 0 0 1
    outer loop
      vertex 27.6386 4.997 5
      vertex 34.8526 5.94139 5
      vertex 27.9079 10.1452 5
    endloop
  endfacet
  facet normal 0 0 1
    outer loop
      vertex 23.5866 22.742 5
      vertex 32.3954 25.3309 5
      vertex 29.3272 30.1392 5
    endloop
  endfacet
  facet normal 0 0 1
    outer loop
      vertex 34.8526 5.94139 5
      vertex 27.6386 4.997 5
      vertex 33.3031 -1.23369 5
    endloop
  endfacet
  facet normal -0 0 1
    outer loop
      vertex 26.5023 -0.264697 5
      vertex 33.3031 -1.23369 5
      vertex 27.6386 4.997 5
    endloop
  endfacet
  facet normal 0 0 1
    outer loop
      vertex 33.3031 -1.23369 5
      vertex 26.5023 -0.264697 5
      vertex 31.0376 -7.2 5
    endloop
  endfacet
  facet normal -0 0 1
    outer loop
      vertex 24.5486 -5.40998 5
      vertex 31.0376 -7.2 5
      vertex 26.5023 -0.264697 5
    endloop
  endfacet
  facet normal 0 0 1
    outer loop
      vertex 31.0376 -7.2 5
      vertex 24.5486 -5.40998 5
      vertex 23.5478 -7.2 5
    endloop
  endfacet
  facet normal 0 0 1
    outer loop
      vertex 9.08806 27.026 5
      vertex 5.4732 30.6452 5
      vertex 6.53582 27.7257 5
    endloop
  endfacet
  facet normal 0 0 1
    outer loop
      vertex 5.4732 30.6452 5
      vertex 4.69775 28.3203 5
      vertex 6.53582 27.7257 5
    endloop
  endfacet
  facet normal -0 0 1
    outer loop
      vertex 4.44737 29.0082 5
      vertex 4.69775 28.3203 5
      vertex 5.4732 30.6452 5
    endloop
  endfacet
  facet normal 0 0 1
    outer loop
      vertex 4.69775 28.3203 5
      vertex 4.44737 29.0082 5
      vertex 3.72434 28.3555 5
    endloop
  endfacet
  facet normal 0 0 1
    outer loop
      vertex -2.53904 27.7675 5
      vertex -1.80194 26.1322 5
      vertex -1.80194 26.7554 5
    endloop
  endfacet
  facet normal 0 0 1
    outer loop
      vertex -1.80194 26.1322 5
      vertex -2.53904 27.7675 5
      vertex -4.88439 25.4068 5
    endloop
  endfacet
  facet normal 0 0 1
    outer loop
      vertex -4.88439 25.4068 5
      vertex -2.53904 27.7675 5
      vertex -4.20597 28.4687 5
    endloop
  endfacet
  facet normal 0 0 1
    outer loop
      vertex -1.80194 26.1322 5
      vertex -4.88439 25.4068 5
      vertex -2.06288 23.59 5
    endloop
  endfacet
  facet normal -0 0 1
    outer loop
      vertex -6.01218 28.3799 5
      vertex -4.88439 25.4068 5
      vertex -4.20597 28.4687 5
    endloop
  endfacet
  facet normal -0 0 1
    outer loop
      vertex -7.26775 27.5351 5
      vertex -4.88439 25.4068 5
      vertex -6.01218 28.3799 5
    endloop
  endfacet
  facet normal 0 0 1
    outer loop
      vertex -4.88439 25.4068 5
      vertex -7.26775 27.5351 5
      vertex -7.46759 26.4018 5
    endloop
  endfacet
  facet normal 0 0 1
    outer loop
      vertex -1.80194 26.1322 5
      vertex -1.45167 24.78 5
      vertex -1.52974 25.9152 5
    endloop
  endfacet
  facet normal 0 0 1
    outer loop
      vertex -1.45167 24.78 5
      vertex -1.80194 26.1322 5
      vertex -2.06288 23.59 5
    endloop
  endfacet
  facet normal 0 0 1
    outer loop
      vertex -3.82416 33.7729 5
      vertex -3.89638 32.2973 5
      vertex -3.76872 33.7372 5
    endloop
  endfacet
  facet normal 0 0 1
    outer loop
      vertex -3.89638 32.2973 5
      vertex -5.89347 29.9173 5
      vertex -3.96287 29.8474 5
    endloop
  endfacet
  facet normal 0 0 1
    outer loop
      vertex -9.55644 35.9809 5
      vertex -3.89638 32.2973 5
      vertex -3.82416 33.7729 5
    endloop
  endfacet
  facet normal 0 0 1
    outer loop
      vertex -3.89638 32.2973 5
      vertex -9.55644 35.9809 5
      vertex -5.89347 29.9173 5
    endloop
  endfacet
  facet normal 0 0 1
    outer loop
      vertex -5.89347 29.9173 5
      vertex -9.55644 35.9809 5
      vertex -7.62269 29.4518 5
    endloop
  endfacet
  facet normal 0 0 1
    outer loop
      vertex -13.2354 27.5689 5
      vertex -8.88726 28.5218 5
      vertex -9.55644 35.9809 5
    endloop
  endfacet
  facet normal 0 0 1
    outer loop
      vertex -7.62269 29.4518 5
      vertex -9.55644 35.9809 5
      vertex -8.88726 28.5218 5
    endloop
  endfacet
  facet normal 0 0 1
    outer loop
      vertex -3.49231 30.4082 5
      vertex -3.96287 29.8474 5
      vertex -3.03611 29.5476 5
    endloop
  endfacet
  facet normal 0 0 1
    outer loop
      vertex -3.96287 29.8474 5
      vertex -3.49231 30.4082 5
      vertex -3.89638 32.2973 5
    endloop
  endfacet
  facet normal 0 0 1
    outer loop
      vertex -9.49467 27.2688 5
      vertex -13.2354 27.5689 5
      vertex -9.47493 27.0766 5
    endloop
  endfacet
  facet normal 0 0 1
    outer loop
      vertex -8.88726 28.5218 5
      vertex -13.2354 27.5689 5
      vertex -9.49467 27.2688 5
    endloop
  endfacet
  facet normal 0 0 1
    outer loop
      vertex -15.212 36.7212 5
      vertex -13.2354 27.5689 5
      vertex -9.55644 35.9809 5
    endloop
  endfacet
  facet normal 0 0 1
    outer loop
      vertex -15.212 36.7212 5
      vertex -17.1453 27.0118 5
      vertex -13.2354 27.5689 5
    endloop
  endfacet
  facet normal -0 0 1
    outer loop
      vertex -20.5436 35.9616 5
      vertex -17.1453 27.0118 5
      vertex -15.212 36.7212 5
    endloop
  endfacet
  facet normal 0 0 1
    outer loop
      vertex -20.5436 35.9616 5
      vertex -20.6467 25.3791 5
      vertex -17.1453 27.0118 5
    endloop
  endfacet
  facet normal -0 0 1
    outer loop
      vertex -25.3182 33.7351 5
      vertex -20.6467 25.3791 5
      vertex -20.5436 35.9616 5
    endloop
  endfacet
  facet normal -0 0 1
    outer loop
      vertex -29.3272 30.1392 5
      vertex -20.6467 25.3791 5
      vertex -25.3182 33.7351 5
    endloop
  endfacet
  facet normal 0 0 1
    outer loop
      vertex -20.6467 25.3791 5
      vertex -29.3272 30.1392 5
      vertex -23.5866 22.742 5
    endloop
  endfacet
  facet normal -0 0 1
    outer loop
      vertex -32.3954 25.3309 5
      vertex -23.5866 22.742 5
      vertex -29.3272 30.1392 5
    endloop
  endfacet
  facet normal 0 0 1
    outer loop
      vertex -23.5866 22.742 5
      vertex -32.3954 25.3309 5
      vertex -25.8366 19.216 5
    endloop
  endfacet
  facet normal -0 0 1
    outer loop
      vertex -34.3886 19.5204 5
      vertex -25.8366 19.216 5
      vertex -32.3954 25.3309 5
    endloop
  endfacet
  facet normal 0 0 1
    outer loop
      vertex -25.8366 19.216 5
      vertex -34.3886 19.5204 5
      vertex -27.2983 14.955 5
    endloop
  endfacet
  facet normal 0 0 1
    outer loop
      vertex -24.5486 -5.40998 5
      vertex -31.0376 -7.2 5
      vertex -23.5478 -7.2 5
    endloop
  endfacet
  facet normal 0 0 1
    outer loop
      vertex -26.5023 -0.264697 5
      vertex -31.0376 -7.2 5
      vertex -24.5486 -5.40998 5
    endloop
  endfacet
  facet normal 0 0 1
    outer loop
      vertex -33.3031 -1.23369 5
      vertex -26.5023 -0.264697 5
      vertex -27.6386 4.997 5
    endloop
  endfacet
  facet normal 0 0 1
    outer loop
      vertex -35.2198 12.9617 5
      vertex -27.2983 14.955 5
      vertex -34.3886 19.5204 5
    endloop
  endfacet
  facet normal 0 0 1
    outer loop
      vertex -27.2983 14.955 5
      vertex -35.2198 12.9617 5
      vertex -27.9079 10.1452 5
    endloop
  endfacet
  facet normal 0 0 1
    outer loop
      vertex -26.5023 -0.264697 5
      vertex -33.3031 -1.23369 5
      vertex -31.0376 -7.2 5
    endloop
  endfacet
  facet normal 0 -0 1
    outer loop
      vertex -34.8526 5.94139 5
      vertex -27.9079 10.1452 5
      vertex -35.2198 12.9617 5
    endloop
  endfacet
  facet normal 0 0 1
    outer loop
      vertex -27.6386 4.997 5
      vertex -34.8526 5.94139 5
      vertex -33.3031 -1.23369 5
    endloop
  endfacet
  facet normal 0 0 1
    outer loop
      vertex -27.9079 10.1452 5
      vertex -34.8526 5.94139 5
      vertex -27.6386 4.997 5
    endloop
  endfacet
  facet normal 0 0 1
    outer loop
      vertex -1.80194 27.8678 5
      vertex -3.03611 29.5476 5
      vertex -2.53904 27.7675 5
    endloop
  endfacet
  facet normal 0 0 1
    outer loop
      vertex -2.17674 30.8871 5
      vertex -3.49231 30.4082 5
      vertex -3.03611 29.5476 5
    endloop
  endfacet
  facet normal 0 0 1
    outer loop
      vertex -3.76872 33.7372 5
      vertex -2.40297 32.6812 5
      vertex -2.34203 32.8185 5
    endloop
  endfacet
  facet normal 0 0 1
    outer loop
      vertex -2.40297 32.6812 5
      vertex -3.76872 33.7372 5
      vertex -3.89638 32.2973 5
    endloop
  endfacet
  facet normal 0 0 1
    outer loop
      vertex -2.17674 30.8871 5
      vertex -3.89638 32.2973 5
      vertex -3.49231 30.4082 5
    endloop
  endfacet
  facet normal 0 0 1
    outer loop
      vertex -1.19675 29.3672 5
      vertex -0.445042 28.9499 5
      vertex -0.254783 28.9064 5
    endloop
  endfacet
  facet normal 0 0 1
    outer loop
      vertex -1.19675 29.3672 5
      vertex -1.80194 27.8678 5
      vertex -0.445042 28.9499 5
    endloop
  endfacet
  facet normal -0 0 1
    outer loop
      vertex -3.03611 29.5476 5
      vertex -1.19675 29.3672 5
      vertex -2.17674 30.8871 5
    endloop
  endfacet
  facet normal 0 0 1
    outer loop
      vertex -3.03611 29.5476 5
      vertex -1.80194 27.8678 5
      vertex -1.19675 29.3672 5
    endloop
  endfacet
  facet normal -0 0 1
    outer loop
      vertex -3.89638 32.2973 5
      vertex -2.17674 30.8871 5
      vertex -2.40297 32.6812 5
    endloop
  endfacet
  facet normal 0 0 1
    outer loop
      vertex -1.80194 27.8678 5
      vertex -2.53904 27.7675 5
      vertex -1.80194 26.7554 5
    endloop
  endfacet
  facet normal 0 0 1
    outer loop
      vertex -4.20597 28.4687 5
      vertex -3.03611 29.5476 5
      vertex -3.96287 29.8474 5
    endloop
  endfacet
  facet normal 0 0 1
    outer loop
      vertex -3.03611 29.5476 5
      vertex -4.20597 28.4687 5
      vertex -2.53904 27.7675 5
    endloop
  endfacet
  facet normal 0 0 1
    outer loop
      vertex -5.89347 29.9173 5
      vertex -4.20597 28.4687 5
      vertex -3.96287 29.8474 5
    endloop
  endfacet
  facet normal 0 0 1
    outer loop
      vertex -5.89347 29.9173 5
      vertex -6.01218 28.3799 5
      vertex -4.20597 28.4687 5
    endloop
  endfacet
  facet normal -0 0 1
    outer loop
      vertex -7.62269 29.4518 5
      vertex -6.01218 28.3799 5
      vertex -5.89347 29.9173 5
    endloop
  endfacet
  facet normal 0 0 1
    outer loop
      vertex -6.01218 28.3799 5
      vertex -7.62269 29.4518 5
      vertex -7.26775 27.5351 5
    endloop
  endfacet
  facet normal -0 0 1
    outer loop
      vertex -8.88726 28.5218 5
      vertex -7.26775 27.5351 5
      vertex -7.62269 29.4518 5
    endloop
  endfacet
  facet normal 0 0 1
    outer loop
      vertex -9.08806 27.026 5
      vertex -7.26775 27.5351 5
      vertex -8.88726 28.5218 5
    endloop
  endfacet
  facet normal 0 0 1
    outer loop
      vertex -7.26775 27.5351 5
      vertex -9.08806 27.026 5
      vertex -7.46759 26.4018 5
    endloop
  endfacet
  facet normal -0 0 1
    outer loop
      vertex -9.49467 27.2688 5
      vertex -9.08806 27.026 5
      vertex -8.88726 28.5218 5
    endloop
  endfacet
  facet normal 0 0 1
    outer loop
      vertex -9.08806 27.026 5
      vertex -9.49467 27.2688 5
      vertex -9.47493 27.0766 5
    endloop
  endfacet
  facet normal -0.222884 -0.974845 0
    outer loop
      vertex -0.445042 28.9499 0
      vertex -0.254783 28.9064 5
      vertex -0.445042 28.9499 5
    endloop
  endfacet
  facet normal -0.222504 -0.974932 -1.52305e-05
    outer loop
      vertex -0.254783 28.9064 5
      vertex -0.445042 28.9499 0
      vertex 0.713559 28.6854 5
    endloop
  endfacet
  facet normal -0.222525 -0.974927 -1.0154e-05
    outer loop
      vertex 1.24698 28.5637 0
      vertex 0.713559 28.6854 5
      vertex -0.445042 28.9499 0
    endloop
  endfacet
  facet normal -0.222434 -0.974948 0
    outer loop
      vertex 0.713559 28.6854 5
      vertex 1.24698 28.5637 0
      vertex 1.24698 28.5637 5
    endloop
  endfacet
  facet normal -0.900973 -0.433875 0
    outer loop
      vertex 2 27 0
      vertex 1.24698 28.5637 5
      vertex 1.24698 28.5637 0
    endloop
  endfacet
  facet normal -0.900973 -0.433875 0
    outer loop
      vertex 1.24698 28.5637 5
      vertex 2 27 0
      vertex 2 27 5
    endloop
  endfacet
  facet normal -0.900964 0.433895 0
    outer loop
      vertex 2 27 0
      vertex 1.58434 26.1369 5
      vertex 2 27 5
    endloop
  endfacet
  facet normal -0.900973 0.433875 -4.14619e-06
    outer loop
      vertex 1.24698 25.4363 0
      vertex 1.58434 26.1369 5
      vertex 2 27 0
    endloop
  endfacet
  facet normal -0.900985 0.433851 0
    outer loop
      vertex 1.58434 26.1369 5
      vertex 1.24698 25.4363 0
      vertex 1.24698 25.4363 5
    endloop
  endfacet
  facet normal 0.623526 0.781803 -0
    outer loop
      vertex -0.445042 25.0501 0
      vertex -1.52974 25.9152 5
      vertex -0.445042 25.0501 5
    endloop
  endfacet
  facet normal 0.623493 0.781829 -1.16107e-05
    outer loop
      vertex -1.80194 26.1322 0
      vertex -1.52974 25.9152 5
      vertex -0.445042 25.0501 0
    endloop
  endfacet
  facet normal 0.623363 0.781933 0
    outer loop
      vertex -1.52974 25.9152 5
      vertex -1.80194 26.1322 0
      vertex -1.80194 26.1322 5
    endloop
  endfacet
  facet normal -0.222429 0.974949 0
    outer loop
      vertex 1.24698 25.4363 0
      vertex 1.03571 25.3881 5
      vertex 1.24698 25.4363 5
    endloop
  endfacet
  facet normal -0.222525 0.974927 -4.26538e-06
    outer loop
      vertex -0.445042 25.0501 0
      vertex 1.03571 25.3881 5
      vertex 1.24698 25.4363 0
    endloop
  endfacet
  facet normal -0.222538 0.974924 0
    outer loop
      vertex 1.03571 25.3881 5
      vertex -0.445042 25.0501 0
      vertex -0.445042 25.0501 5
    endloop
  endfacet
  facet normal 0 0 -1
    outer loop
      vertex -34.8526 5.94139 0
      vertex -27.9079 10.1452 0
      vertex -27.6386 4.997 0
    endloop
  endfacet
  facet normal 0 0 -1
    outer loop
      vertex -31.0376 -7.2 0
      vertex -24.5486 -5.40998 0
      vertex -23.5478 -7.2 0
    endloop
  endfacet
  facet normal 0 0 -1
    outer loop
      vertex -31.0376 -7.2 0
      vertex -26.5023 -0.264697 0
      vertex -24.5486 -5.40998 0
    endloop
  endfacet
  facet normal 0 0 -1
    outer loop
      vertex -33.3031 -1.23369 0
      vertex -26.5023 -0.264697 0
      vertex -31.0376 -7.2 0
    endloop
  endfacet
  facet normal -0 0 -1
    outer loop
      vertex -26.5023 -0.264697 0
      vertex -33.3031 -1.23369 0
      vertex -27.6386 4.997 0
    endloop
  endfacet
  facet normal 0 0 -1
    outer loop
      vertex -34.8526 5.94139 0
      vertex -27.6386 4.997 0
      vertex -33.3031 -1.23369 0
    endloop
  endfacet
  facet normal -0 0 -1
    outer loop
      vertex -27.9079 10.1452 0
      vertex -34.8526 5.94139 0
      vertex -35.2198 12.9617 0
    endloop
  endfacet
  facet normal 0 0 -1
    outer loop
      vertex -27.9079 10.1452 0
      vertex -35.2198 12.9617 0
      vertex -34.3886 19.5204 0
    endloop
  endfacet
  facet normal 0 0 -1
    outer loop
      vertex -27.9079 10.1452 0
      vertex -34.3886 19.5204 0
      vertex -32.3954 25.3309 0
    endloop
  endfacet
  facet normal 0 0 -1
    outer loop
      vertex -27.9079 10.1452 0
      vertex -32.3954 25.3309 0
      vertex -29.3272 30.1392 0
    endloop
  endfacet
  facet normal 0 0 -1
    outer loop
      vertex 27.9079 10.1452 0
      vertex 35.2198 12.9617 0
      vertex 34.8526 5.94139 0
    endloop
  endfacet
  facet normal 0 0 -1
    outer loop
      vertex 27.6386 4.997 0
      vertex 34.8526 5.94139 0
      vertex 33.3031 -1.23369 0
    endloop
  endfacet
  facet normal 0 0 -1
    outer loop
      vertex 27.2983 14.955 0
      vertex 35.2198 12.9617 0
      vertex 27.9079 10.1452 0
    endloop
  endfacet
  facet normal 0 0 -1
    outer loop
      vertex 26.5023 -0.264697 0
      vertex 33.3031 -1.23369 0
      vertex 31.0376 -7.2 0
    endloop
  endfacet
  facet normal 0 0 -1
    outer loop
      vertex 35.2198 12.9617 0
      vertex 27.2983 14.955 0
      vertex 34.3886 19.5204 0
    endloop
  endfacet
  facet normal 0 0 -1
    outer loop
      vertex 25.8366 19.216 0
      vertex 34.3886 19.5204 0
      vertex 27.2983 14.955 0
    endloop
  endfacet
  facet normal -0 0 -1
    outer loop
      vertex 34.8526 5.94139 0
      vertex 27.6386 4.997 0
      vertex 27.9079 10.1452 0
    endloop
  endfacet
  facet normal 0 0 -1
    outer loop
      vertex 33.3031 -1.23369 0
      vertex 26.5023 -0.264697 0
      vertex 27.6386 4.997 0
    endloop
  endfacet
  facet normal 0 0 -1
    outer loop
      vertex 31.0376 -7.2 0
      vertex 24.5486 -5.40998 0
      vertex 26.5023 -0.264697 0
    endloop
  endfacet
  facet normal 0 -0 -1
    outer loop
      vertex 24.5486 -5.40998 0
      vertex 31.0376 -7.2 0
      vertex 23.5478 -7.2 0
    endloop
  endfacet
  facet normal -0 0 -1
    outer loop
      vertex 34.3886 19.5204 0
      vertex 25.8366 19.216 0
      vertex 32.3954 25.3309 0
    endloop
  endfacet
  facet normal 0 0 -1
    outer loop
      vertex 23.5866 22.742 0
      vertex 32.3954 25.3309 0
      vertex 25.8366 19.216 0
    endloop
  endfacet
  facet normal -0 0 -1
    outer loop
      vertex 32.3954 25.3309 0
      vertex 23.5866 22.742 0
      vertex 29.3272 30.1392 0
    endloop
  endfacet
  facet normal 0 0 -1
    outer loop
      vertex 20.6467 25.3791 0
      vertex 29.3272 30.1392 0
      vertex 23.5866 22.742 0
    endloop
  endfacet
  facet normal -0 0 -1
    outer loop
      vertex 29.3272 30.1392 0
      vertex 20.6467 25.3791 0
      vertex 25.3182 33.7351 0
    endloop
  endfacet
  facet normal 0 0 -1
    outer loop
      vertex 20.6467 25.3791 0
      vertex 20.5436 35.9616 0
      vertex 25.3182 33.7351 0
    endloop
  endfacet
  facet normal 0 0 -1
    outer loop
      vertex 17.1453 27.0118 0
      vertex 20.5436 35.9616 0
      vertex 20.6467 25.3791 0
    endloop
  endfacet
  facet normal 0 0 -1
    outer loop
      vertex 17.1453 27.0118 0
      vertex 15.212 36.7212 0
      vertex 20.5436 35.9616 0
    endloop
  endfacet
  facet normal 0 0 -1
    outer loop
      vertex 13.2354 27.5689 0
      vertex 15.212 36.7212 0
      vertex 17.1453 27.0118 0
    endloop
  endfacet
  facet normal 0 0 -1
    outer loop
      vertex 13.2354 27.5689 0
      vertex 9.55644 35.9809 0
      vertex 15.212 36.7212 0
    endloop
  endfacet
  facet normal 0 0 -1
    outer loop
      vertex 9.08806 27.026 0
      vertex 9.55644 35.9809 0
      vertex 13.2354 27.5689 0
    endloop
  endfacet
  facet normal 0 0 -1
    outer loop
      vertex 3.82414 33.7729 0
      vertex 9.08806 27.026 0
      vertex 4.88437 25.4068 0
    endloop
  endfacet
  facet normal 0 0 -1
    outer loop
      vertex 9.08806 27.026 0
      vertex 3.82414 33.7729 0
      vertex 9.55644 35.9809 0
    endloop
  endfacet
  facet normal 0 0 -1
    outer loop
      vertex 1.24698 28.5637 0
      vertex 4.88437 25.4068 0
      vertex 2 27 0
    endloop
  endfacet
  facet normal 0 0 -1
    outer loop
      vertex 4.88437 25.4068 0
      vertex 1.24698 25.4363 0
      vertex 2 27 0
    endloop
  endfacet
  facet normal 0 0 -1
    outer loop
      vertex 0.808099 22.7821 0
      vertex 1.24698 25.4363 0
      vertex 4.88437 25.4068 0
    endloop
  endfacet
  facet normal 0 0 -1
    outer loop
      vertex -0.808118 22.7821 0
      vertex 0.808099 22.7821 0
      vertex 1.90735e-07 22.0286 0
    endloop
  endfacet
  facet normal 0 -0 -1
    outer loop
      vertex -0.445042 25.0501 0
      vertex 0.808099 22.7821 0
      vertex -0.808118 22.7821 0
    endloop
  endfacet
  facet normal 0 0 -1
    outer loop
      vertex 0.808099 22.7821 0
      vertex -0.445042 25.0501 0
      vertex 1.24698 25.4363 0
    endloop
  endfacet
  facet normal 0 0 -1
    outer loop
      vertex -0.808118 22.7821 0
      vertex -1.80194 26.1322 0
      vertex -0.445042 25.0501 0
    endloop
  endfacet
  facet normal 0 0 -1
    outer loop
      vertex -4.88439 25.4068 0
      vertex -1.80194 27.8678 0
      vertex -1.80194 26.1322 0
    endloop
  endfacet
  facet normal 0 0 -1
    outer loop
      vertex -4.88439 25.4068 0
      vertex -1.80194 26.1322 0
      vertex -0.808118 22.7821 0
    endloop
  endfacet
  facet normal 0 0 -1
    outer loop
      vertex -9.08806 27.026 0
      vertex -1.80194 27.8678 0
      vertex -4.88439 25.4068 0
    endloop
  endfacet
  facet normal -0 0 -1
    outer loop
      vertex -1.80194 27.8678 0
      vertex -9.08806 27.026 0
      vertex -3.82416 33.7729 0
    endloop
  endfacet
  facet normal 0 0 -1
    outer loop
      vertex -9.08806 27.026 0
      vertex -9.55644 35.9809 0
      vertex -3.82416 33.7729 0
    endloop
  endfacet
  facet normal 0 0 -1
    outer loop
      vertex -13.2354 27.5689 0
      vertex -9.55644 35.9809 0
      vertex -9.08806 27.026 0
    endloop
  endfacet
  facet normal 0 0 -1
    outer loop
      vertex -13.2354 27.5689 0
      vertex -15.212 36.7212 0
      vertex -9.55644 35.9809 0
    endloop
  endfacet
  facet normal 0 0 -1
    outer loop
      vertex -17.1453 27.0118 0
      vertex -15.212 36.7212 0
      vertex -13.2354 27.5689 0
    endloop
  endfacet
  facet normal 0 0 -1
    outer loop
      vertex -17.1453 27.0118 0
      vertex -20.5436 35.9616 0
      vertex -15.212 36.7212 0
    endloop
  endfacet
  facet normal 0 0 -1
    outer loop
      vertex -20.6467 25.3791 0
      vertex -20.5436 35.9616 0
      vertex -17.1453 27.0118 0
    endloop
  endfacet
  facet normal 0 0 -1
    outer loop
      vertex -29.3272 30.1392 0
      vertex -20.6467 25.3791 0
      vertex -23.5866 22.742 0
    endloop
  endfacet
  facet normal 0 0 -1
    outer loop
      vertex -20.6467 25.3791 0
      vertex -25.3182 33.7351 0
      vertex -20.5436 35.9616 0
    endloop
  endfacet
  facet normal 0 0 -1
    outer loop
      vertex -29.3272 30.1392 0
      vertex -23.5866 22.742 0
      vertex -25.8366 19.216 0
    endloop
  endfacet
  facet normal 0 0 -1
    outer loop
      vertex -29.3272 30.1392 0
      vertex -25.8366 19.216 0
      vertex -27.2983 14.955 0
    endloop
  endfacet
  facet normal 0 0 -1
    outer loop
      vertex -29.3272 30.1392 0
      vertex -27.2983 14.955 0
      vertex -27.9079 10.1452 0
    endloop
  endfacet
  facet normal 0 0 -1
    outer loop
      vertex -20.6467 25.3791 0
      vertex -29.3272 30.1392 0
      vertex -25.3182 33.7351 0
    endloop
  endfacet
  facet normal 0 0 -1
    outer loop
      vertex 4.88437 25.4068 0
      vertex 1.24698 28.5637 0
      vertex 3.82414 33.7729 0
    endloop
  endfacet
  facet normal 0 0 -1
    outer loop
      vertex 1.24698 28.5637 0
      vertex 1.90735e-07 31.3105 0
      vertex 3.82414 33.7729 0
    endloop
  endfacet
  facet normal 0 0 -1
    outer loop
      vertex -0.445042 28.9499 0
      vertex 1.90735e-07 31.3105 0
      vertex 1.24698 28.5637 0
    endloop
  endfacet
  facet normal 0 0 -1
    outer loop
      vertex -1.80194 27.8678 0
      vertex 1.90735e-07 31.3105 0
      vertex -0.445042 28.9499 0
    endloop
  endfacet
  facet normal -0 0 -1
    outer loop
      vertex 1.90735e-07 31.3105 0
      vertex -1.80194 27.8678 0
      vertex -3.82416 33.7729 0
    endloop
  endfacet
  facet normal 1 -0 0
    outer loop
      vertex -1.80194 26.7554 5
      vertex -1.80194 27.8678 0
      vertex -1.80194 27.8678 5
    endloop
  endfacet
  facet normal 1 0 0
    outer loop
      vertex -1.80194 26.1322 0
      vertex -1.80194 26.7554 5
      vertex -1.80194 26.1322 5
    endloop
  endfacet
  facet normal 1 0 0
    outer loop
      vertex -1.80194 26.7554 5
      vertex -1.80194 26.1322 0
      vertex -1.80194 27.8678 0
    endloop
  endfacet
  facet normal 0.623493 -0.781829 0
    outer loop
      vertex -1.80194 27.8678 0
      vertex -0.445042 28.9499 5
      vertex -1.80194 27.8678 5
    endloop
  endfacet
  facet normal 0.623493 -0.781829 0
    outer loop
      vertex -0.445042 28.9499 5
      vertex -1.80194 27.8678 0
      vertex -0.445042 28.9499 0
    endloop
  endfacet
  facet normal 0.977467 -0.21109 0
    outer loop
      vertex 33.3031 -1.23369 5
      vertex 34.8526 5.94139 0
      vertex 34.8526 5.94139 5
    endloop
  endfacet
  facet normal 0.977467 -0.21109 0
    outer loop
      vertex 34.8526 5.94139 0
      vertex 33.3031 -1.23369 5
      vertex 33.3031 -1.23369 0
    endloop
  endfacet
  facet normal 0.998635 -0.052234 0
    outer loop
      vertex 34.8526 5.94139 5
      vertex 35.2198 12.9617 0
      vertex 35.2198 12.9617 5
    endloop
  endfacet
  facet normal 0.998635 -0.052234 0
    outer loop
      vertex 35.2198 12.9617 0
      vertex 34.8526 5.94139 5
      vertex 34.8526 5.94139 0
    endloop
  endfacet
  facet normal 0.992065 0.125727 0
    outer loop
      vertex 35.2198 12.9617 5
      vertex 34.3886 19.5204 0
      vertex 34.3886 19.5204 5
    endloop
  endfacet
  facet normal 0.992065 0.125727 0
    outer loop
      vertex 34.3886 19.5204 0
      vertex 35.2198 12.9617 5
      vertex 35.2198 12.9617 0
    endloop
  endfacet
  facet normal 0.945895 0.324474 0
    outer loop
      vertex 34.3886 19.5204 5
      vertex 32.3954 25.3309 0
      vertex 32.3954 25.3309 5
    endloop
  endfacet
  facet normal 0.945895 0.324474 0
    outer loop
      vertex 32.3954 25.3309 0
      vertex 34.3886 19.5204 5
      vertex 34.3886 19.5204 0
    endloop
  endfacet
  facet normal 0.842996 0.53792 0
    outer loop
      vertex 32.3954 25.3309 5
      vertex 29.3272 30.1392 0
      vertex 29.3272 30.1392 5
    endloop
  endfacet
  facet normal 0.842996 0.53792 0
    outer loop
      vertex 29.3272 30.1392 0
      vertex 32.3954 25.3309 5
      vertex 32.3954 25.3309 0
    endloop
  endfacet
  facet normal 0.667712 0.74442 -0
    outer loop
      vertex 29.3272 30.1392 0
      vertex 25.3182 33.7351 5
      vertex 29.3272 30.1392 5
    endloop
  endfacet
  facet normal 0.667712 0.74442 0
    outer loop
      vertex 25.3182 33.7351 5
      vertex 29.3272 30.1392 0
      vertex 25.3182 33.7351 0
    endloop
  endfacet
  facet normal 0.422629 0.906303 -0
    outer loop
      vertex 25.3182 33.7351 0
      vertex 20.5436 35.9616 5
      vertex 25.3182 33.7351 5
    endloop
  endfacet
  facet normal 0.422629 0.906303 0
    outer loop
      vertex 20.5436 35.9616 5
      vertex 25.3182 33.7351 0
      vertex 20.5436 35.9616 0
    endloop
  endfacet
  facet normal 0.141047 0.990003 -0
    outer loop
      vertex 20.5436 35.9616 0
      vertex 15.212 36.7212 5
      vertex 20.5436 35.9616 5
    endloop
  endfacet
  facet normal 0.141047 0.990003 0
    outer loop
      vertex 15.212 36.7212 5
      vertex 20.5436 35.9616 0
      vertex 15.212 36.7212 0
    endloop
  endfacet
  facet normal -0.129791 0.991541 0
    outer loop
      vertex 15.212 36.7212 0
      vertex 9.55644 35.9809 5
      vertex 15.212 36.7212 5
    endloop
  endfacet
  facet normal -0.129791 0.991541 0
    outer loop
      vertex 9.55644 35.9809 5
      vertex 15.212 36.7212 0
      vertex 9.55644 35.9809 0
    endloop
  endfacet
  facet normal -0.359452 0.933164 0
    outer loop
      vertex 9.55644 35.9809 0
      vertex 5.44789 34.3983 5
      vertex 9.55644 35.9809 5
    endloop
  endfacet
  facet normal -0.359443 0.933167 8.45146e-06
    outer loop
      vertex 3.82414 33.7729 0
      vertex 5.44789 34.3983 5
      vertex 9.55644 35.9809 0
    endloop
  endfacet
  facet normal -0.35942 0.933176 0
    outer loop
      vertex 5.44789 34.3983 5
      vertex 3.82414 33.7729 0
      vertex 3.82414 33.7729 5
    endloop
  endfacet
  facet normal -0.541479 0.840714 0
    outer loop
      vertex 3.82414 33.7729 0
      vertex 3.47542 33.5483 5
      vertex 3.82414 33.7729 5
    endloop
  endfacet
  facet normal -0.541384 0.840776 9.39564e-06
    outer loop
      vertex 1.90735e-07 31.3105 0
      vertex 3.47542 33.5483 5
      vertex 3.82414 33.7729 0
    endloop
  endfacet
  facet normal -0.541374 0.840782 0
    outer loop
      vertex 3.47542 33.5483 5
      vertex 1.90735e-07 31.3105 0
      vertex 1.90735e-07 31.3105 5
    endloop
  endfacet
  facet normal 0.541369 0.840785 -0
    outer loop
      vertex 1.90735e-07 31.3105 0
      vertex -2.34203 32.8185 5
      vertex 1.90735e-07 31.3105 5
    endloop
  endfacet
  facet normal 0.541381 0.840777 7.98415e-06
    outer loop
      vertex -3.82416 33.7729 0
      vertex -2.34203 32.8185 5
      vertex 1.90735e-07 31.3105 0
    endloop
  endfacet
  facet normal 0.5414 0.840765 1.23755e-08
    outer loop
      vertex -2.34203 32.8185 5
      vertex -3.82416 33.7729 0
      vertex -3.76872 33.7372 5
    endloop
  endfacet
  facet normal 0.541401 0.840764 0
    outer loop
      vertex -3.76872 33.7372 5
      vertex -3.82416 33.7729 0
      vertex -3.82416 33.7729 5
    endloop
  endfacet
  facet normal 0.359444 0.933167 -0
    outer loop
      vertex -3.82416 33.7729 0
      vertex -9.55644 35.9809 5
      vertex -3.82416 33.7729 5
    endloop
  endfacet
  facet normal 0.359444 0.933167 0
    outer loop
      vertex -9.55644 35.9809 5
      vertex -3.82416 33.7729 0
      vertex -9.55644 35.9809 0
    endloop
  endfacet
  facet normal 0.129791 0.991541 -0
    outer loop
      vertex -9.55644 35.9809 0
      vertex -15.212 36.7212 5
      vertex -9.55644 35.9809 5
    endloop
  endfacet
  facet normal 0.129791 0.991541 0
    outer loop
      vertex -15.212 36.7212 5
      vertex -9.55644 35.9809 0
      vertex -15.212 36.7212 0
    endloop
  endfacet
  facet normal -0.141047 0.990003 0
    outer loop
      vertex -15.212 36.7212 0
      vertex -20.5436 35.9616 5
      vertex -15.212 36.7212 5
    endloop
  endfacet
  facet normal -0.141047 0.990003 0
    outer loop
      vertex -20.5436 35.9616 5
      vertex -15.212 36.7212 0
      vertex -20.5436 35.9616 0
    endloop
  endfacet
  facet normal -0.422629 0.906303 0
    outer loop
      vertex -20.5436 35.9616 0
      vertex -25.3182 33.7351 5
      vertex -20.5436 35.9616 5
    endloop
  endfacet
  facet normal -0.422629 0.906303 0
    outer loop
      vertex -25.3182 33.7351 5
      vertex -20.5436 35.9616 0
      vertex -25.3182 33.7351 0
    endloop
  endfacet
  facet normal -0.667712 0.74442 0
    outer loop
      vertex -25.3182 33.7351 0
      vertex -29.3272 30.1392 5
      vertex -25.3182 33.7351 5
    endloop
  endfacet
  facet normal -0.667712 0.74442 0
    outer loop
      vertex -29.3272 30.1392 5
      vertex -25.3182 33.7351 0
      vertex -29.3272 30.1392 0
    endloop
  endfacet
  facet normal -0.842996 0.53792 0
    outer loop
      vertex -32.3954 25.3309 0
      vertex -29.3272 30.1392 5
      vertex -29.3272 30.1392 0
    endloop
  endfacet
  facet normal -0.842996 0.53792 0
    outer loop
      vertex -29.3272 30.1392 5
      vertex -32.3954 25.3309 0
      vertex -32.3954 25.3309 5
    endloop
  endfacet
  facet normal -0.945895 0.324474 0
    outer loop
      vertex -34.3886 19.5204 0
      vertex -32.3954 25.3309 5
      vertex -32.3954 25.3309 0
    endloop
  endfacet
  facet normal -0.945895 0.324474 0
    outer loop
      vertex -32.3954 25.3309 5
      vertex -34.3886 19.5204 0
      vertex -34.3886 19.5204 5
    endloop
  endfacet
  facet normal -0.992065 0.125727 0
    outer loop
      vertex -35.2198 12.9617 0
      vertex -34.3886 19.5204 5
      vertex -34.3886 19.5204 0
    endloop
  endfacet
  facet normal -0.992065 0.125727 0
    outer loop
      vertex -34.3886 19.5204 5
      vertex -35.2198 12.9617 0
      vertex -35.2198 12.9617 5
    endloop
  endfacet
  facet normal -0.998635 -0.052234 0
    outer loop
      vertex -34.8526 5.94139 0
      vertex -35.2198 12.9617 5
      vertex -35.2198 12.9617 0
    endloop
  endfacet
  facet normal -0.998635 -0.052234 0
    outer loop
      vertex -35.2198 12.9617 5
      vertex -34.8526 5.94139 0
      vertex -34.8526 5.94139 5
    endloop
  endfacet
  facet normal -0.977467 -0.21109 0
    outer loop
      vertex -33.3031 -1.23369 0
      vertex -34.8526 5.94139 5
      vertex -34.8526 5.94139 0
    endloop
  endfacet
  facet normal -0.977467 -0.21109 0
    outer loop
      vertex -34.8526 5.94139 5
      vertex -33.3031 -1.23369 0
      vertex -33.3031 -1.23369 5
    endloop
  endfacet
  facet normal -0.934872 -0.354985 0
    outer loop
      vertex -31.0376 -7.2 0
      vertex -33.3031 -1.23369 5
      vertex -33.3031 -1.23369 0
    endloop
  endfacet
  facet normal -0.934872 -0.354985 0
    outer loop
      vertex -33.3031 -1.23369 5
      vertex -31.0376 -7.2 0
      vertex -31.0376 -7.2 5
    endloop
  endfacet
  facet normal 0 -1 0
    outer loop
      vertex -31.0376 -7.2 0
      vertex -23.5478 -7.2 5
      vertex -31.0376 -7.2 5
    endloop
  endfacet
  facet normal 0 -1 -0
    outer loop
      vertex -23.5478 -7.2 5
      vertex -31.0376 -7.2 0
      vertex -23.5478 -7.2 0
    endloop
  endfacet
  facet normal 0.872841 0.488005 0
    outer loop
      vertex -23.5478 -7.2 5
      vertex -24.5486 -5.40998 0
      vertex -24.5486 -5.40998 5
    endloop
  endfacet
  facet normal 0.872841 0.488005 0
    outer loop
      vertex -24.5486 -5.40998 0
      vertex -23.5478 -7.2 5
      vertex -23.5478 -7.2 0
    endloop
  endfacet
  facet normal 0.934875 0.354978 0
    outer loop
      vertex -24.5486 -5.40998 5
      vertex -26.5023 -0.264697 0
      vertex -26.5023 -0.264697 5
    endloop
  endfacet
  facet normal 0.934875 0.354978 0
    outer loop
      vertex -26.5023 -0.264697 0
      vertex -24.5486 -5.40998 5
      vertex -24.5486 -5.40998 0
    endloop
  endfacet
  facet normal 0.977466 0.211091 0
    outer loop
      vertex -26.5023 -0.264697 5
      vertex -27.6386 4.997 0
      vertex -27.6386 4.997 5
    endloop
  endfacet
  facet normal 0.977466 0.211091 0
    outer loop
      vertex -27.6386 4.997 0
      vertex -26.5023 -0.264697 5
      vertex -26.5023 -0.264697 0
    endloop
  endfacet
  facet normal 0.998635 0.0522381 0
    outer loop
      vertex -27.6386 4.997 5
      vertex -27.9079 10.1452 0
      vertex -27.9079 10.1452 5
    endloop
  endfacet
  facet normal 0.998635 0.0522381 0
    outer loop
      vertex -27.9079 10.1452 0
      vertex -27.6386 4.997 5
      vertex -27.6386 4.997 0
    endloop
  endfacet
  facet normal 0.992064 -0.125735 0
    outer loop
      vertex -27.9079 10.1452 5
      vertex -27.2983 14.955 0
      vertex -27.2983 14.955 5
    endloop
  endfacet
  facet normal 0.992064 -0.125735 0
    outer loop
      vertex -27.2983 14.955 0
      vertex -27.9079 10.1452 5
      vertex -27.9079 10.1452 0
    endloop
  endfacet
  facet normal 0.945892 -0.32448 0
    outer loop
      vertex -27.2983 14.955 5
      vertex -25.8366 19.216 0
      vertex -25.8366 19.216 5
    endloop
  endfacet
  facet normal 0.945892 -0.32448 0
    outer loop
      vertex -25.8366 19.216 0
      vertex -27.2983 14.955 5
      vertex -27.2983 14.955 0
    endloop
  endfacet
  facet normal 0.842991 -0.537927 0
    outer loop
      vertex -25.8366 19.216 5
      vertex -23.5866 22.742 0
      vertex -23.5866 22.742 5
    endloop
  endfacet
  facet normal 0.842991 -0.537927 0
    outer loop
      vertex -23.5866 22.742 0
      vertex -25.8366 19.216 5
      vertex -25.8366 19.216 0
    endloop
  endfacet
  facet normal 0.667731 -0.744402 0
    outer loop
      vertex -23.5866 22.742 0
      vertex -20.6467 25.3791 5
      vertex -23.5866 22.742 5
    endloop
  endfacet
  facet normal 0.667731 -0.744402 0
    outer loop
      vertex -20.6467 25.3791 5
      vertex -23.5866 22.742 0
      vertex -20.6467 25.3791 0
    endloop
  endfacet
  facet normal 0.422612 -0.906311 0
    outer loop
      vertex -20.6467 25.3791 0
      vertex -17.1453 27.0118 5
      vertex -20.6467 25.3791 5
    endloop
  endfacet
  facet normal 0.422612 -0.906311 0
    outer loop
      vertex -17.1453 27.0118 5
      vertex -20.6467 25.3791 0
      vertex -17.1453 27.0118 0
    endloop
  endfacet
  facet normal 0.14106 -0.990001 0
    outer loop
      vertex -17.1453 27.0118 0
      vertex -13.2354 27.5689 5
      vertex -17.1453 27.0118 5
    endloop
  endfacet
  facet normal 0.14106 -0.990001 0
    outer loop
      vertex -13.2354 27.5689 5
      vertex -17.1453 27.0118 0
      vertex -13.2354 27.5689 0
    endloop
  endfacet
  facet normal -0.129807 -0.991539 0
    outer loop
      vertex -13.2354 27.5689 0
      vertex -9.47493 27.0766 5
      vertex -13.2354 27.5689 5
    endloop
  endfacet
  facet normal -0.129796 -0.991541 -8.43082e-06
    outer loop
      vertex -9.08806 27.026 0
      vertex -9.47493 27.0766 5
      vertex -13.2354 27.5689 0
    endloop
  endfacet
  facet normal -0.129689 -0.991555 0
    outer loop
      vertex -9.47493 27.0766 5
      vertex -9.08806 27.026 0
      vertex -9.08806 27.026 5
    endloop
  endfacet
  facet normal -0.359452 -0.933164 0
    outer loop
      vertex -9.08806 27.026 0
      vertex -7.46759 26.4018 5
      vertex -9.08806 27.026 5
    endloop
  endfacet
  facet normal -0.359444 -0.933167 -2.92093e-06
    outer loop
      vertex -4.88439 25.4068 0
      vertex -7.46759 26.4018 5
      vertex -9.08806 27.026 0
    endloop
  endfacet
  facet normal -0.359439 -0.933169 0
    outer loop
      vertex -7.46759 26.4018 5
      vertex -4.88439 25.4068 0
      vertex -4.88439 25.4068 5
    endloop
  endfacet
  facet normal -0.541384 -0.840775 0
    outer loop
      vertex -4.88439 25.4068 0
      vertex -2.06288 23.59 5
      vertex -4.88439 25.4068 5
    endloop
  endfacet
  facet normal -0.541376 -0.84078 -6.33937e-06
    outer loop
      vertex -0.808118 22.7821 0
      vertex -2.06288 23.59 5
      vertex -4.88439 25.4068 0
    endloop
  endfacet
  facet normal -0.541357 -0.840793 6.34153e-07
    outer loop
      vertex -2.06288 23.59 5
      vertex -0.808118 22.7821 0
      vertex -0.863248 22.8176 5
    endloop
  endfacet
  facet normal -0.541397 -0.840767 0
    outer loop
      vertex -0.863248 22.8176 5
      vertex -0.808118 22.7821 0
      vertex -0.808118 22.7821 5
    endloop
  endfacet
  facet normal -0.682054 -0.731302 0
    outer loop
      vertex -0.808118 22.7821 0
      vertex -0.57427 22.564 5
      vertex -0.808118 22.7821 5
    endloop
  endfacet
  facet normal -0.681958 -0.731391 -8.3463e-06
    outer loop
      vertex 1.90735e-07 22.0286 0
      vertex -0.57427 22.564 5
      vertex -0.808118 22.7821 0
    endloop
  endfacet
  facet normal -0.68192 -0.731427 0
    outer loop
      vertex -0.57427 22.564 5
      vertex 1.90735e-07 22.0286 0
      vertex 1.90735e-07 22.0286 5
    endloop
  endfacet
  facet normal 0.681967 -0.731383 0
    outer loop
      vertex 1.90735e-07 22.0286 0
      vertex 0.808099 22.7821 5
      vertex 1.90735e-07 22.0286 5
    endloop
  endfacet
  facet normal 0.681967 -0.731383 0
    outer loop
      vertex 0.808099 22.7821 5
      vertex 1.90735e-07 22.0286 0
      vertex 0.808099 22.7821 0
    endloop
  endfacet
  facet normal 0.531826 -0.846854 0
    outer loop
      vertex 0.808099 22.7821 0
      vertex 0.810806 22.7838 5
      vertex 0.808099 22.7821 5
    endloop
  endfacet
  facet normal 0.541383 -0.840776 -7.24054e-06
    outer loop
      vertex 0.810806 22.7838 5
      vertex 0.808099 22.7821 0
      vertex 4.88437 25.4068 5
    endloop
  endfacet
  facet normal 0.541376 -0.84078 0
    outer loop
      vertex 4.88437 25.4068 5
      vertex 0.808099 22.7821 0
      vertex 4.88437 25.4068 0
    endloop
  endfacet
  facet normal 0.359396 -0.933185 0
    outer loop
      vertex 4.88437 25.4068 0
      vertex 6.32467 25.9615 5
      vertex 4.88437 25.4068 5
    endloop
  endfacet
  facet normal 0.359442 -0.933167 -1.54023e-05
    outer loop
      vertex 9.08806 27.026 0
      vertex 6.32467 25.9615 5
      vertex 4.88437 25.4068 0
    endloop
  endfacet
  facet normal 0.359463 -0.933159 -2.2175e-06
    outer loop
      vertex 6.32467 25.9615 5
      vertex 9.08806 27.026 0
      vertex 8.04892 26.6257 5
    endloop
  endfacet
  facet normal 0.359472 -0.933156 0
    outer loop
      vertex 8.04892 26.6257 5
      vertex 9.08806 27.026 0
      vertex 9.08806 27.026 5
    endloop
  endfacet
  facet normal 0.129796 -0.991541 0
    outer loop
      vertex 9.08806 27.026 0
      vertex 13.2354 27.5689 5
      vertex 9.08806 27.026 5
    endloop
  endfacet
  facet normal 0.129796 -0.991541 0
    outer loop
      vertex 13.2354 27.5689 5
      vertex 9.08806 27.026 0
      vertex 13.2354 27.5689 0
    endloop
  endfacet
  facet normal -0.14106 -0.990001 0
    outer loop
      vertex 13.2354 27.5689 0
      vertex 17.1453 27.0118 5
      vertex 13.2354 27.5689 5
    endloop
  endfacet
  facet normal -0.14106 -0.990001 -0
    outer loop
      vertex 17.1453 27.0118 5
      vertex 13.2354 27.5689 0
      vertex 17.1453 27.0118 0
    endloop
  endfacet
  facet normal -0.422612 -0.906311 0
    outer loop
      vertex 17.1453 27.0118 0
      vertex 20.6467 25.3791 5
      vertex 17.1453 27.0118 5
    endloop
  endfacet
  facet normal -0.422612 -0.906311 -0
    outer loop
      vertex 20.6467 25.3791 5
      vertex 17.1453 27.0118 0
      vertex 20.6467 25.3791 0
    endloop
  endfacet
  facet normal -0.667731 -0.744402 0
    outer loop
      vertex 20.6467 25.3791 0
      vertex 23.5866 22.742 5
      vertex 20.6467 25.3791 5
    endloop
  endfacet
  facet normal -0.667731 -0.744402 -0
    outer loop
      vertex 23.5866 22.742 5
      vertex 20.6467 25.3791 0
      vertex 23.5866 22.742 0
    endloop
  endfacet
  facet normal -0.842991 -0.537927 0
    outer loop
      vertex 25.8366 19.216 0
      vertex 23.5866 22.742 5
      vertex 23.5866 22.742 0
    endloop
  endfacet
  facet normal -0.842991 -0.537927 0
    outer loop
      vertex 23.5866 22.742 5
      vertex 25.8366 19.216 0
      vertex 25.8366 19.216 5
    endloop
  endfacet
  facet normal -0.945892 -0.32448 0
    outer loop
      vertex 27.2983 14.955 0
      vertex 25.8366 19.216 5
      vertex 25.8366 19.216 0
    endloop
  endfacet
  facet normal -0.945892 -0.32448 0
    outer loop
      vertex 25.8366 19.216 5
      vertex 27.2983 14.955 0
      vertex 27.2983 14.955 5
    endloop
  endfacet
  facet normal -0.992064 -0.125735 0
    outer loop
      vertex 27.9079 10.1452 0
      vertex 27.2983 14.955 5
      vertex 27.2983 14.955 0
    endloop
  endfacet
  facet normal -0.992064 -0.125735 0
    outer loop
      vertex 27.2983 14.955 5
      vertex 27.9079 10.1452 0
      vertex 27.9079 10.1452 5
    endloop
  endfacet
  facet normal -0.998635 0.0522381 0
    outer loop
      vertex 27.6386 4.997 0
      vertex 27.9079 10.1452 5
      vertex 27.9079 10.1452 0
    endloop
  endfacet
  facet normal -0.998635 0.0522381 0
    outer loop
      vertex 27.9079 10.1452 5
      vertex 27.6386 4.997 0
      vertex 27.6386 4.997 5
    endloop
  endfacet
  facet normal -0.977466 0.211091 0
    outer loop
      vertex 26.5023 -0.264697 0
      vertex 27.6386 4.997 5
      vertex 27.6386 4.997 0
    endloop
  endfacet
  facet normal -0.977466 0.211091 0
    outer loop
      vertex 27.6386 4.997 5
      vertex 26.5023 -0.264697 0
      vertex 26.5023 -0.264697 5
    endloop
  endfacet
  facet normal -0.934875 0.354978 0
    outer loop
      vertex 24.5486 -5.40998 0
      vertex 26.5023 -0.264697 5
      vertex 26.5023 -0.264697 0
    endloop
  endfacet
  facet normal -0.934875 0.354978 0
    outer loop
      vertex 26.5023 -0.264697 5
      vertex 24.5486 -5.40998 0
      vertex 24.5486 -5.40998 5
    endloop
  endfacet
  facet normal -0.872841 0.488005 0
    outer loop
      vertex 23.5478 -7.2 0
      vertex 24.5486 -5.40998 5
      vertex 24.5486 -5.40998 0
    endloop
  endfacet
  facet normal -0.872841 0.488005 0
    outer loop
      vertex 24.5486 -5.40998 5
      vertex 23.5478 -7.2 0
      vertex 23.5478 -7.2 5
    endloop
  endfacet
  facet normal 0 -1 0
    outer loop
      vertex 23.5478 -7.2 0
      vertex 31.0376 -7.2 5
      vertex 23.5478 -7.2 5
    endloop
  endfacet
  facet normal 0 -1 -0
    outer loop
      vertex 31.0376 -7.2 5
      vertex 23.5478 -7.2 0
      vertex 31.0376 -7.2 0
    endloop
  endfacet
  facet normal 0.934872 -0.354985 0
    outer loop
      vertex 31.0376 -7.2 5
      vertex 33.3031 -1.23369 0
      vertex 33.3031 -1.23369 5
    endloop
  endfacet
  facet normal 0.934872 -0.354985 0
    outer loop
      vertex 33.3031 -1.23369 0
      vertex 31.0376 -7.2 5
      vertex 31.0376 -7.2 0
    endloop
  endfacet
  facet normal 0.222528 0 0.974926
    outer loop
      vertex -27.245 -8 4.44986
      vertex -25.553 -17 4.06366
      vertex -25.553 -8 4.06366
    endloop
  endfacet
  facet normal 0.222528 0 0.974926
    outer loop
      vertex -25.553 -17 4.06366
      vertex -27.245 -8 4.44986
      vertex -27.245 -17 4.44986
    endloop
  endfacet
  facet normal 0.900973 -0 0.433875
    outer loop
      vertex -25.553 -17 4.06366
      vertex -24.8 -8 2.5
      vertex -25.553 -8 4.06366
    endloop
  endfacet
  facet normal 0.900973 0 0.433875
    outer loop
      vertex -24.8 -8 2.5
      vertex -25.553 -17 4.06366
      vertex -24.8 -17 2.5
    endloop
  endfacet
  facet normal -0.623489 0 0.781832
    outer loop
      vertex -28.6019 -8 3.36777
      vertex -27.245 -17 4.44986
      vertex -27.245 -8 4.44986
    endloop
  endfacet
  facet normal -0.623489 0 0.781832
    outer loop
      vertex -27.245 -17 4.44986
      vertex -28.6019 -8 3.36777
      vertex -28.6019 -17 3.36777
    endloop
  endfacet
  facet normal 0 -1 0
    outer loop
      vertex -28.6019 -17 3.36777
      vertex -25.553 -17 4.06366
      vertex -27.245 -17 4.44986
    endloop
  endfacet
  facet normal 0 -1 0
    outer loop
      vertex -28.6019 -17 3.36777
      vertex -24.8 -17 2.5
      vertex -25.553 -17 4.06366
    endloop
  endfacet
  facet normal 0 -1 0
    outer loop
      vertex -28.6019 -17 1.63223
      vertex -24.8 -17 2.5
      vertex -28.6019 -17 3.36777
    endloop
  endfacet
  facet normal 0 -1 0
    outer loop
      vertex -28.6019 -17 1.63223
      vertex -25.553 -17 0.936337
      vertex -24.8 -17 2.5
    endloop
  endfacet
  facet normal -0 -1 0
    outer loop
      vertex -25.553 -17 0.936337
      vertex -28.6019 -17 1.63223
      vertex -27.245 -17 0.550143
    endloop
  endfacet
  facet normal -0.623488 0 -0.781833
    outer loop
      vertex -28.6019 -17 1.63223
      vertex -27.245 -8 0.550143
      vertex -27.245 -17 0.550143
    endloop
  endfacet
  facet normal -0.623488 0 -0.781833
    outer loop
      vertex -27.245 -8 0.550143
      vertex -28.6019 -17 1.63223
      vertex -28.6019 -8 1.63223
    endloop
  endfacet
  facet normal 0.222524 0 -0.974927
    outer loop
      vertex -27.245 -17 0.550143
      vertex -25.553 -8 0.936337
      vertex -25.553 -17 0.936337
    endloop
  endfacet
  facet normal 0.222524 0 -0.974927
    outer loop
      vertex -25.553 -8 0.936337
      vertex -27.245 -17 0.550143
      vertex -27.245 -8 0.550143
    endloop
  endfacet
  facet normal 0 1 0
    outer loop
      vertex -25.553 -8 4.06366
      vertex -28.6019 -8 3.36777
      vertex -27.245 -8 4.44986
    endloop
  endfacet
  facet normal 0 1 0
    outer loop
      vertex -24.8 -8 2.5
      vertex -28.6019 -8 3.36777
      vertex -25.553 -8 4.06366
    endloop
  endfacet
  facet normal 0 1 0
    outer loop
      vertex -24.8 -8 2.5
      vertex -28.6019 -8 1.63223
      vertex -28.6019 -8 3.36777
    endloop
  endfacet
  facet normal 0 1 -0
    outer loop
      vertex -25.553 -8 0.936337
      vertex -28.6019 -8 1.63223
      vertex -24.8 -8 2.5
    endloop
  endfacet
  facet normal 0 1 0
    outer loop
      vertex -28.6019 -8 1.63223
      vertex -25.553 -8 0.936337
      vertex -27.245 -8 0.550143
    endloop
  endfacet
  facet normal -1 0 0
    outer loop
      vertex -28.6019 -17 1.63223
      vertex -28.6019 -8 3.36777
      vertex -28.6019 -8 1.63223
    endloop
  endfacet
  facet normal -1 -0 0
    outer loop
      vertex -28.6019 -8 3.36777
      vertex -28.6019 -17 1.63223
      vertex -28.6019 -17 3.36777
    endloop
  endfacet
  facet normal 0.900973 0 -0.433874
    outer loop
      vertex -24.8 -17 2.5
      vertex -25.553 -8 0.936337
      vertex -24.8 -8 2.5
    endloop
  endfacet
  facet normal 0.900973 0 -0.433874
    outer loop
      vertex -25.553 -8 0.936337
      vertex -24.8 -17 2.5
      vertex -25.553 -17 0.936337
    endloop
  endfacet
  facet normal 0.222528 0 0.974926
    outer loop
      vertex 26.755 -8 4.44986
      vertex 28.447 -17 4.06366
      vertex 28.447 -8 4.06366
    endloop
  endfacet
  facet normal 0.222528 0 0.974926
    outer loop
      vertex 28.447 -17 4.06366
      vertex 26.755 -8 4.44986
      vertex 26.755 -17 4.44986
    endloop
  endfacet
  facet normal 0.900973 -0 0.433875
    outer loop
      vertex 28.447 -17 4.06366
      vertex 29.2 -8 2.5
      vertex 28.447 -8 4.06366
    endloop
  endfacet
  facet normal 0.900973 0 0.433875
    outer loop
      vertex 29.2 -8 2.5
      vertex 28.447 -17 4.06366
      vertex 29.2 -17 2.5
    endloop
  endfacet
  facet normal -0.623489 0 0.781832
    outer loop
      vertex 25.3981 -8 3.36777
      vertex 26.755 -17 4.44986
      vertex 26.755 -8 4.44986
    endloop
  endfacet
  facet normal -0.623489 0 0.781832
    outer loop
      vertex 26.755 -17 4.44986
      vertex 25.3981 -8 3.36777
      vertex 25.3981 -17 3.36777
    endloop
  endfacet
  facet normal 0 -1 0
    outer loop
      vertex 25.3981 -17 3.36777
      vertex 28.447 -17 4.06366
      vertex 26.755 -17 4.44986
    endloop
  endfacet
  facet normal 0 -1 0
    outer loop
      vertex 25.3981 -17 3.36777
      vertex 29.2 -17 2.5
      vertex 28.447 -17 4.06366
    endloop
  endfacet
  facet normal 0 -1 0
    outer loop
      vertex 25.3981 -17 1.63223
      vertex 29.2 -17 2.5
      vertex 25.3981 -17 3.36777
    endloop
  endfacet
  facet normal 0 -1 0
    outer loop
      vertex 25.3981 -17 1.63223
      vertex 28.447 -17 0.936337
      vertex 29.2 -17 2.5
    endloop
  endfacet
  facet normal -0 -1 0
    outer loop
      vertex 28.447 -17 0.936337
      vertex 25.3981 -17 1.63223
      vertex 26.755 -17 0.550143
    endloop
  endfacet
  facet normal -0.623488 0 -0.781833
    outer loop
      vertex 25.3981 -17 1.63223
      vertex 26.755 -8 0.550143
      vertex 26.755 -17 0.550143
    endloop
  endfacet
  facet normal -0.623488 0 -0.781833
    outer loop
      vertex 26.755 -8 0.550143
      vertex 25.3981 -17 1.63223
      vertex 25.3981 -8 1.63223
    endloop
  endfacet
  facet normal 0.222524 0 -0.974927
    outer loop
      vertex 26.755 -17 0.550143
      vertex 28.447 -8 0.936337
      vertex 28.447 -17 0.936337
    endloop
  endfacet
  facet normal 0.222524 0 -0.974927
    outer loop
      vertex 28.447 -8 0.936337
      vertex 26.755 -17 0.550143
      vertex 26.755 -8 0.550143
    endloop
  endfacet
  facet normal 0 1 0
    outer loop
      vertex 28.447 -8 4.06366
      vertex 25.3981 -8 3.36777
      vertex 26.755 -8 4.44986
    endloop
  endfacet
  facet normal 0 1 0
    outer loop
      vertex 29.2 -8 2.5
      vertex 25.3981 -8 3.36777
      vertex 28.447 -8 4.06366
    endloop
  endfacet
  facet normal 0 1 0
    outer loop
      vertex 29.2 -8 2.5
      vertex 25.3981 -8 1.63223
      vertex 25.3981 -8 3.36777
    endloop
  endfacet
  facet normal 0 1 -0
    outer loop
      vertex 28.447 -8 0.936337
      vertex 25.3981 -8 1.63223
      vertex 29.2 -8 2.5
    endloop
  endfacet
  facet normal 0 1 0
    outer loop
      vertex 25.3981 -8 1.63223
      vertex 28.447 -8 0.936337
      vertex 26.755 -8 0.550143
    endloop
  endfacet
  facet normal -1 0 0
    outer loop
      vertex 25.3981 -17 1.63223
      vertex 25.3981 -8 3.36777
      vertex 25.3981 -8 1.63223
    endloop
  endfacet
  facet normal -1 -0 0
    outer loop
      vertex 25.3981 -8 3.36777
      vertex 25.3981 -17 1.63223
      vertex 25.3981 -17 3.36777
    endloop
  endfacet
  facet normal 0.900973 0 -0.433874
    outer loop
      vertex 29.2 -17 2.5
      vertex 28.447 -8 0.936337
      vertex 29.2 -8 2.5
    endloop
  endfacet
  facet normal 0.900973 0 -0.433874
    outer loop
      vertex 28.447 -8 0.936337
      vertex 29.2 -17 2.5
      vertex 28.447 -17 0.936337
    endloop
  endfacet
endsolid OpenSCAD_Model
